<?xml version="1.0" encoding="utf-8"?>
<!-- Generator: Adobe Illustrator 17.0.0, SVG Export Plug-In . SVG Version: 6.00 Build 0)  -->
<!DOCTYPE svg PUBLIC "-//W3C//DTD SVG 1.1//EN" "http://www.w3.org/Graphics/SVG/1.1/DTD/svg11.dtd">
<svg version="1.1" xmlns="http://www.w3.org/2000/svg" xmlns:xlink="http://www.w3.org/1999/xlink" x="0px" y="0px" width="150px"
	 height="150px" viewBox="0 0 500 500" enable-background="new 0 0 500 500" xml:space="preserve">
<g id="OBJECTS">
	<g>
		<g>
			<g>
				<g>
					<path fill="#AD4040" d="M284.883,249.683c-0.007-0.004-0.012-0.008-0.019-0.012c-0.985-0.634-1.929-1.361-2.773-2.173
						c-0.889-0.856-1.674-1.876-2.3-2.974c-0.38-0.667-0.701-1.363-0.952-2.07c-0.308-0.868-0.444-1.763-0.655-2.655
						c-0.103-0.436-0.251-0.884-0.312-1.328c-0.053-0.378-0.204-0.697-0.355-1.051c-0.08-0.189-0.16-0.378-0.241-0.567
						c-0.026-0.06-0.061-0.225-0.114-0.267c0.608-0.335,1.102-0.799,1.464-1.339c0.642,0.674,1.352,1.286,1.953,2.006
						c0.798,0.955,1.507,1.956,2.107,3.048c1.124,2.046,1.889,4.307,2.129,6.635c0.06,0.583,0.089,1.169,0.089,1.755
						c0,0.294-0.081,0.698-0.028,0.977C284.879,249.673,284.881,249.678,284.883,249.683z"/>
					<path fill="#AD4040" d="M276.521,235.645c-0.167-0.419-0.338-0.836-0.514-1.25c-0.38-0.895-0.759-2.083-1.872-2.243
						c-0.978-0.141-1.892,0.536-2.633,1.4c-0.189-0.744-0.241-1.512,0.172-2.213c0.092-0.155,0.204-0.294,0.325-0.426
						c1.546-1.083,3.498-1.511,5.06-0.096C278.601,232.213,278.378,234.697,276.521,235.645z"/>
					<path fill="#E5E3DC" d="M281.881,203.678c-0.073,1.138-0.177,2.274-0.322,3.404c-0.563,4.416-1.726,8.751-3.644,12.777
						c-0.102,0.214-0.454,0.064-0.383-0.161c2.319-7.342,3.65-14.922,3.179-22.643c-0.472-7.739-2.621-15.136-6.306-21.947
						c-1.539-2.844-3.32-5.775-5.634-8.116c-0.668,0.179-1.23,0.622-1.615,1.445c-0.13,0.277-0.58,0.137-0.569-0.154
						c0.036-0.959,0.597-1.667,1.365-2.074c-0.472-0.424-0.967-0.821-1.484-1.19c-0.096,0.619-0.297,1.2-0.791,1.534
						c-0.064,0.043-0.16,0.013-0.197-0.052c-0.529-0.937,0.02-2.316,0.031-3.358c0.014-1.23,0.015-3.462-1.268-4.156
						c-1.129-0.611-2.48,1.053-3.523,1.501c-0.925,0.397-1.908,0.612-2.911,0.681c-1.948,0.134-4.29-0.348-5.855-1.556
						c-1.189-0.917-3.466-2.997-2.919-4.695c0.041-0.127,0.188-0.13,0.262-0.034c0.444,0.575,0.68,1.254,1.185,1.798
						c0.445,0.48,1.016,0.807,1.592,1.104c1.008,0.519,2.145,0.998,3.245,1.274c1.191,0.299,2.48,0.377,3.688,0.128
						c0.474-0.098,0.905-0.261,1.322-0.453c-0.741-0.821-1.534-1.566-2.37-2.235c-0.094,0.197-0.199,0.389-0.332,0.563
						c-0.252,0.33-0.819,0.345-0.94-0.123c-0.113-0.433-0.059-0.883,0.107-1.306c-0.853-0.585-1.742-1.097-2.661-1.536
						c-0.27,0.79-0.788,1.426-1.793,1.561c-1.959,0.264-3.076-2.235-4.921-1.865c-1.535,0.307-2.551,1.331-4.152,0.493
						c-0.751-0.393-1.342-1.12-2.173-1.362c-0.229-0.067-0.439-0.085-0.639-0.073c-0.325,0.085-0.649,0.178-0.971,0.279
						c-0.387,0.176-0.771,0.389-1.213,0.492c-0.05,0.012-0.102,0.007-0.148-0.01c-0.864,0.34-1.716,0.739-2.548,1.205
						c-4.116,2.31-7.895,6.055-9.705,10.47c-2.069,5.046-0.693,10.855,0.656,15.91c0.801,3.001,1.86,5.925,3.068,8.784
						c0.692,1.638,1.076,4.147-1.318,4.449c-0.273,0.035-0.485-0.212-0.571-0.435c-1.027-2.653-2.209-5.473-4.608-7.187
						c-2.054-1.467-5.392-2.042-7.288,0.005c-1.685,1.818-1.326,5.216,0.867,6.47c2.782,1.589,6.051-0.433,6.293-3.517
						c0.037-0.471,0.813-0.663,0.893-0.121c0.084,0.565,0.069,1.097-0.027,1.591c0.052,0.044,0.102,0.094,0.149,0.156
						c1.921,2.539,3.501,5.285,4.771,8.204c0.594,1.363,1.119,2.76,1.546,4.185c0.403,1.344,0.932,2.894,0.888,4.308
						c1.086,1.071,2.189,2.126,3.368,3.098c3.434,2.831,7.151,5.307,10.994,7.545c3.969,2.311,8.082,4.331,12.231,6.294
						c4.236,2.004,8.715,3.509,12.93,5.542c0.491-0.914,1.325-1.559,2.33-1.421c0.636-0.301,1.344-0.446,2.05-0.43
						c0.008-0.047,0.025-0.095,0.056-0.145c2.619-4.251,5-8.677,6.244-13.546C282.347,211.293,282.534,207.436,281.881,203.678z"/>
					<path fill="#AD4040" d="M275.909,251.32c-0.65,1.048-1.39,2.071-2.05,3.091c-0.182,0.282-0.379,0.563-0.648,0.763
						c-0.349,0.26-0.76,0.373-1.131,0.096c-0.653-0.487-0.834-1.607-1.044-2.337c-0.332-1.157-0.611-2.33-0.83-3.514
						c-0.436-2.367-0.63-4.785-0.494-7.19c0.103-1.808,0.434-3.657,1.19-5.315c0.381-0.834,0.869-1.616,1.461-2.317
						c0.236-0.279,0.485-0.565,0.762-0.804c0.226-0.195,0.449-0.277,0.658-0.274c-0.011,0.039-0.015,0.08-0.003,0.124
						c1.106,4.004,1.868,8.946,0.133,12.915c-0.081,0.186,0.171,0.347,0.279,0.163c1.254-2.138,1.487-4.409,1.46-6.848
						c-0.016-1.442,0.014-3.146-0.44-4.615c0.788,1.623,1.486,3.281,2.074,4.991c0.025,0.072,0.049,0.143,0.073,0.215
						c0.549,2.431,0.507,4.976-0.12,7.449C276.944,249.079,276.544,250.296,275.909,251.32z"/>
					<path fill="#E5E3DC" d="M333.309,192.227c1.072-1.959,2.033-3.982,2.892-6.045c1.689-4.057,2.889-8.263,4.101-12.475
						c-1.251,0.597-2.903,0.952-3.617-0.439c-0.058-0.112,0.059-0.232,0.172-0.172c1.147,0.608,2.162,0.486,3.258,0.165
						c-2.276-0.361-4.281-2.038-4.842-4.44c-0.069-0.297,0.345-0.492,0.503-0.212c0.976,1.723,2.639,2.966,4.674,2.922
						c2.004-0.043,3.158-1.038,4.583-2.285c2.647-2.317,5.861-2.721,9.16-1.599c1.691,0.576,3.277,1.388,4.884,2.158
						c0.228,0.109,1.164,0.661,1.377,0.623c0.676-0.118,0.484-1.142,0.403-1.564c-0.2-1.037-0.8-1.971-1.559-2.688
						c-2.906-2.745-7.556-3.023-11.309-2.776c-0.133,0.009-0.251-0.027-0.35-0.091c-0.021,0.102-0.046,0.204-0.076,0.303
						l-0.001-0.36c-0.309-0.271-0.371-0.839-0.002-1.088l-0.001-0.619c0.056,0.181,0.095,0.366,0.121,0.554
						c2.54-1.182,5.283-1.394,8.046-1.09c1.449,0.159,2.879,0.446,4.3,0.762c0.806,0.18,1.609,0.386,2.419,0.55
						c0.736,0.148,1.282,0.363,1.88-0.485c0.257-0.364,0.33-0.907,0.324-1.331c-0.049-3.666-4.494-4.372-7.292-4.398
						c-0.387-0.004-0.777,0-1.169,0.01c-3.074,0.168-6.118,0.829-8.996,1.944c0-0.002-0.001-0.004-0.002-0.006
						c-0.068,0.018-0.131,0.02-0.191,0.014c0.091,0.23,0.156,0.471,0.19,0.716l-1.55-2.309c0.361,0.209,0.673,0.495,0.924,0.827
						c0.055-0.125,0.161-0.236,0.336-0.305c3.82-1.515,7.865-2.193,11.97-1.907c0.713,0.05,3.177,0.624,3.709,0.098
						c1.076-1.065-0.362-2.404-1.248-2.881c-1.915-1.03-4.209-1.465-6.367-1.466c-4.339-0.004-8.333,1.644-12.127,3.6
						c-2.719,1.402-5.304,3.135-8.288,3.739c0.124,0.037,0.247,0.075,0.37,0.114c1.566,0.501,3.508,1.545,3.425,3.442
						c-0.026,0.591-0.818,0.684-1.011,0.137c-0.881-2.507-3.538-2.339-5.551-3.43c-1.748-0.946-2.772-2.71-4.076-4.135
						c-1.572-1.718-3.608-2.973-5.857-3.584c-1.132-0.308-2.364-0.495-3.526-0.237c-0.521,0.116-1.384,0.38-1.706,0.862
						c-0.699,1.047,0.635,1.609,1.288,1.824c7.798,2.569,13.243,11.618,10.131,19.632c-0.042,0.108-0.143,0.171-0.248,0.187
						c-1.086,3.235-3.111,6.295-5.374,8.71c-1.123,1.199-2.328,2.303-3.599,3.322c0.035,0.102,0.043,0.214,0.009,0.329
						c-0.002,0.007-0.004,0.013-0.006,0.02c0.043,0.03,0.083,0.083,0.122,0.161c0.126,0.164,0.25,0.329,0.373,0.495
						c0.249,0.329,0.497,0.658,0.753,0.982c0.468,0.594,0.955,1.17,1.48,1.714c1.044,1.08,2.221,2.024,3.547,2.735
						c1.386,0.743,2.952,1.207,4.526,1.283C330.909,192.806,332.081,192.438,333.309,192.227z M339.895,162.963
						c2.145-0.412,3.858,0.908,5.024,2.559c0.163,0.23-0.177,0.443-0.366,0.283c-1.201-1.014-2.849-1.919-4.461-1.478
						c-1.257,0.344-2.125,1.451-3.043,2.316c-0.07,0.066-0.196,0.041-0.22-0.058C336.366,164.699,338.208,163.287,339.895,162.963z"
						/>
					<path fill="#AD4040" d="M286.551,211.887c-0.636,6.814-3.643,13.249-8.315,18.226c-0.633-0.692-1.454-1.124-2.323-1.301
						c5.674-8.101,9.835-19.003,6.081-28.735c-0.003-2.176-0.13-4.353-0.388-6.514c0.728,0.898,1.464,1.762,2.019,2.832
						c0.818,1.577,1.447,3.254,1.934,4.961C286.534,204.774,286.881,208.346,286.551,211.887z"/>
					<path fill="#E5E3DC" d="M224.506,194.48c0.183,0.257,0.363,0.515,0.539,0.776c-0.19-0.191-0.419-0.427-0.672-0.668
						C224.428,194.566,224.475,194.529,224.506,194.48z"/>
					<path fill="#AD4040" d="M228.365,201.434c0.408,0.993,0.776,2.003,1.106,3.027c0.276,0.857,0.459,1.767,0.719,2.639
						c-1.525-1.514-3.055-3.019-4.76-4.326c-0.118-0.091-0.225,0.077-0.18,0.18c1.705,3.945,5.296,6.913,8.567,9.58
						c3.383,2.759,7.024,5.189,10.794,7.385c4.087,2.38,8.324,4.574,12.671,6.441c4.231,1.818,8.657,3.806,13.186,4.771
						c-0.247,0.705-0.305,1.492-0.114,2.184c-6.271-0.102-12.415-0.527-18.506-2.159c-8.232-2.206-15.899-5.968-22.775-10.993
						c-2.531-1.849-4.965-3.845-7.201-6.041c-0.684-0.672-1.374-1.165-1.725-2.095c-0.29-0.768-0.357-1.603-0.276-2.416
						c0.16-1.607,0.851-3.125,1.602-4.534c0.654-1.227,1.273-2.538,2.351-3.459c1.001-0.855,2.79-1.312,3.817-0.286
						C227.869,201.561,228.147,201.557,228.365,201.434z"/>
					<path fill="#AD4040" d="M255.124,146.094c0.334,0.107,0.667,0.148,0.998,0.191c-0.009-0.068-0.005-0.142,0.016-0.223
						c1.953-7.464,2.363-15.702-0.814-22.894c-2.789-6.316-7.988-11.209-14.691-13.073c-6.496-1.807-13.493-0.701-19.455,2.286
						c-3.269,1.638-6.442,3.551-10.102,4.163c-3.826,0.64-7.731,0.372-11.558,1.052c-6.984,1.241-13.825,4.654-17.77,10.749
						c-1.955,3.021-2.74,6.3-3.168,9.839c-0.428,3.55-1.086,6.873-2.48,10.18c-2.595,6.159-6.745,11.727-8.269,18.313
						c-1.509,6.521,0.479,13.099,4.415,18.382c4.726,6.343,12.234,10.887,20.047,12.108c7.667,1.198,15.212-1.556,20.299-7.4
						c0.165-0.189,0.363-0.28,0.566-0.303c0.027-0.616,0.154-1.242,0.394-1.857c0.508-1.3,1.394-2.207,2.467-2.761
						c-1.429-1.652-2.821-3.339-4.224-5.012c-0.862-1.028-1.718-2.06-2.585-3.083c-0.872-1.027-1.767-2.426-2.876-3.201
						c-0.396-0.277-0.503-0.702-0.299-1.141c0.123-0.264,0.221-0.308,0.498-0.383c0.327-0.088,0.79,0.052,0.941,0.383
						c0.575,1.253,1.747,2.385,2.624,3.454c0.851,1.038,1.713,2.066,2.569,3.099c1.5,1.809,3.018,3.608,4.484,5.446
						c0.386-0.105,0.785-0.175,1.191-0.208c-1.005-7.856,1.178-15.936,6.158-22.123c1.491-1.852,3.303-3.622,5.325-5.171
						c2.707-2.502,5.951-4.394,9.448-5.433c1.104-0.411,1.993-0.894,2.623-1.978c0.651-1.119,0.893-2.479,0.959-3.754
						c0.041-0.795,0.051-1.566,0.133-2.309c-0.087-0.076-0.173-0.155-0.26-0.23c-1.723-1.496-3.418-3.036-5.173-4.494
						c-1.606-1.334-3.441-2.626-5.519-3.069c-2.429-0.517-4.819,0.369-6.999,1.374c-7.524,3.468-15.101,8.193-19.228,15.628
						c-1.145,2.062-2.072,4.268-2.593,6.573c-0.551,2.439-0.542,4.715-0.537,7.193c0.001,0.212-0.285,0.232-0.352,0.048
						c-1.443-3.938-0.452-8.796,1.145-12.524c0.214-0.5,0.447-0.99,0.695-1.473c-2.533,0.025-5.216-1.042-7.439-2.143
						c-2.234-1.106-5.078-2.631-6.196-4.973c-0.085-0.178,0.085-0.344,0.262-0.262c1.136,0.528,2.022,1.325,3.012,2.073
						c1.042,0.788,2.148,1.491,3.301,2.106c2.351,1.254,4.835,1.829,7.293,2.765c1.825-3.369,4.449-6.301,7.385-8.736
						c3.362-2.788,7.149-4.992,11.075-6.882c-0.05-1.748-0.091-3.477-0.422-5.214c-0.354-1.861-1.268-3.618-1.285-5.516
						c-0.002-0.187,0.218-0.254,0.347-0.144c1.559,1.339,1.952,3.672,2.229,5.625c0.225,1.587,0.297,3.226,0.05,4.813
						c1.886-0.883,3.841-1.725,5.936-1.905c2.205-0.189,4.342,0.515,6.19,1.691c2.13,1.355,3.955,3.186,5.741,4.951
						c0.511,0.505,1.039,1.006,1.57,1.507c0.184-0.659,0.481-1.292,0.978-1.896c2.188-2.658,6.731-3.729,9.485-1.355
						c1.144,0.987,1.833,2.597,1.502,4.11C254.99,143.935,253.576,145.596,255.124,146.094z M191.702,174.473
						c2.416,0.141,4.788,0.028,7.117-0.674c1.148-0.346,2.219-0.824,3.272-1.394c0.487-0.264,0.928-0.625,1.444-0.832
						c0.267-0.107,0.586-0.185,0.874-0.151c0.629,0.075,0.45,0.857,0.219,1.234c-0.332,0.543-0.919,0.872-1.431,1.222
						c-1.051,0.719-2.259,1.254-3.453,1.688c-2.588,0.94-5.329,1.137-8.031,0.666c-5.138-0.896-11.151-1.864-14.091-6.667
						c-0.052-0.085,0.074-0.188,0.141-0.109C181.148,173.473,186.797,174.188,191.702,174.473z M187.117,140.699
						c-0.347,0-0.347-0.538,0-0.538C187.463,140.161,187.464,140.699,187.117,140.699z M220.551,122.321
						c-0.121,0.071-0.322,0.038-0.385-0.101c-0.049-0.109-0.098-0.217-0.147-0.326c-0.028-0.063-0.062-0.125-0.07-0.194
						c-0.008-0.065,0.009-0.116,0.037-0.165c0.022-0.117,0.147-0.196,0.255-0.117c0.214,0.047,0.313,0.341,0.411,0.518
						C220.726,122.069,220.684,122.243,220.551,122.321z"/>
					<path fill="#E5E3DC" d="M288.841,262.881c-13.751,5.259-28.039,9.096-42.596,11.317c-7.27,1.109-14.56,1.58-21.88,2.186
						c-3.558,0.295-7.297,0.915-10.842,0.237c-2.057-0.393-4.161-1.486-5.365-3.247c-0.917-1.341-1.707-3.746-0.153-4.877
						c1.9-1.382,4.169-2.224,6.065-3.656c6.106-4.614,10.555-11.321,11.488-19.007c0.527-4.344,0.374-8.674-0.647-12.923
						c-0.47-1.956-1.123-3.875-1.912-5.725c-0.814-1.91-1.727-3.979-3.066-5.581c-0.248-0.296-0.72-0.016-0.587,0.347
						c0.662,1.814,1.593,3.517,2.222,5.352c0.634,1.849,1.115,3.735,1.473,5.656c0.728,3.906,0.871,8.086,0.264,12.019
						c-0.58,3.758-1.985,7.285-4.034,10.512c-1.843,2.903-4.351,5.303-7.037,7.421c-2.499,1.97-5.747,3.502-7.673,6.095
						c-0.173,0.234-1.393,2.485-1.472,2.418c-0.062-0.052-0.124-0.104-0.186-0.156c-0.432-2.268-2.516-4.579-4.534-5.411
						c-0.29-0.119-0.486,0.304-0.291,0.5c0.817,0.824,1.703,1.592,2.444,2.488c0.31,0.375,0.566,0.777,0.806,1.189
						c-1.614-1.184-3.369-2.202-5.27-2.761c-0.258-0.076-0.427,0.314-0.184,0.437c2.299,1.167,4.353,2.416,6.037,4.343
						c-1.445,1.94-2.633,4.138-3.844,6.219c-1.286,2.21-2.523,4.45-3.724,6.706c-3.591-0.894-7.135-2.19-10.268-4.185
						c-1.609-1.024-3.175-2.178-4.608-3.435c-0.567-0.497-1.231-1.051-1.548-1.751c-0.5-1.105-0.055-2.391,0.211-3.505
						c2.854-11.966,8.121-23.3,15.231-33.327c3.612-5.093,7.728-9.812,12.242-14.124c2.189-2.091,4.465-4.087,6.838-5.965
						c2.33-1.845,4.904-3.422,7.174-5.331c1.398,2.996,4.542,5.12,7.104,7.084c3.354,2.571,6.913,4.873,10.659,6.832
						c10.033,5.245,21.927,8.361,33.275,6.733c0.073,0.118,0.155,0.23,0.25,0.335c-0.356,0.518-0.647,1.038-0.854,1.446
						c-0.984,1.938-1.412,4.1-1.535,6.257c-0.139,2.443,0.136,4.91,0.588,7.31c0.293,1.557,0.97,4.054,1.459,5.561
						c0.193,0.595,0.45,1.189,0.912,1.543c1.423,1.094,2.995-1.289,3.716-2.242c0.56-0.74,3.639-4.453,3.432-8.641
						c-0.015-0.311,0.49-0.346,0.65-0.08c0.075,0.124,0.145,0.241,0.208,0.347c0.746,1.262,1.624,2.505,2.653,3.555
						c0.685,0.699,2.088,2.187,3.172,2.066c1.159-0.129,1.137-1.497,1.16-2.377c0.079-2.946-0.602-5.884-1.865-8.54
						c-1.112-2.337-3.029-5.199-5.422-6.47c0.311-1.078,0.189-2.277-0.454-3.317c0.013-0.01,0.025-0.018,0.038-0.029
						c5.252-4.903,8.589-11.662,9.136-18.84c0.294-3.867-0.133-7.818-1.282-11.522c-0.389-1.253-0.855-2.501-1.414-3.697
						c1.231-0.111,2.468-0.033,3.703-0.214c1.277-0.188,2.549-0.472,3.813-0.728c2.69-0.545,5.368-1.158,8.009-1.907
						c5.913-1.679,11.773-4.127,16.757-7.769c0.383,1.195,1.712,2.514,2.355,3.228c1.227,1.365,2.657,2.586,4.27,3.473
						c1.574,0.866,3.31,1.382,5.106,1.483c0.968,0.055,2.102,0.003,3.122-0.298c-0.523,0.88-1.07,1.745-1.643,2.591
						c-4.067,1.962-8.534-1.058-12.278-2.743c-0.161-0.072-0.369-0.024-0.417,0.17c-0.41,1.652,1.037,2.841,2.207,3.764
						c1.462,1.153,2.994,1.919,4.78,2.424c0.102,0.029,0.174-0.131,0.074-0.175c-1.152-0.505-2.271-1.123-3.326-1.809
						c-1.108-0.722-3.292-2.139-3.236-3.705c2.48,1.219,4.671,3.114,7.443,3.647c1.208,0.232,2.502,0.266,3.679-0.052
						c-1.389,1.891-2.916,3.677-4.596,5.323c-2.022-0.256-3.933-0.946-5.622-2.14c-2.001-1.414-3.648-3.272-5.536-4.813
						c-0.127-0.104-0.323,0.026-0.235,0.181c2.003,3.54,5.973,7.736,10.361,7.745c-0.942,0.86-1.924,1.682-2.959,2.451
						c-3.627,2.695-7.625,4.851-11.746,6.686c-4.152,1.849-8.528,3.183-12.618,5.129c-0.146,0.069-0.26,0.186-0.343,0.324
						c-1.49-2.549-3.103-5.013-4.892-7.315c-0.11-0.142-0.282,0.041-0.226,0.174c1.481,3.507,3.259,6.896,4.934,10.315
						c1.313,2.68,2.608,5.366,3.862,8.074c-0.086,0.096-0.123,0.238-0.055,0.391c0.966,2.155,2.014,4.267,3.038,6.392
						c2.125,5.133,4.033,10.34,6.081,15.509c-2.997,2.038-5.903,4.054-9.185,5.688C296.296,259.945,292.578,261.452,288.841,262.881
						z"/>
					<path fill="#E5E3DC" d="M223.214,193.666c-0.179-0.106-0.358-0.189-0.532-0.239c0.056-0.059,0.111-0.119,0.164-0.18
						C222.969,193.387,223.091,193.527,223.214,193.666z"/>
					<path fill="#E5E3DC" d="M207.77,329.361c-0.003-0.26-0.008-0.508-0.019-0.726c0.433,0.04,0.867,0.076,1.3,0.118
						c1.422,0.139,2.845,0.284,4.268,0.436c-0.039,0.26-0.067,0.535-0.095,0.808C211.428,329.434,209.556,329.201,207.77,329.361z"
						/>
					<path fill="#E5E3DC" d="M180.894,320.448c-0.044,0.506,0.045,1.115,0.066,1.407c0.083,1.163,0.176,2.326,0.268,3.489
						c9.466,0.161,18.901,0.775,28.322,1.713c9.58,0.953,19.049,2.491,28.554,3.978c0.484,0.076,0.828,0.73,0.667,1.175
						c-1.467,4.05-3.536,8.833-1.108,12.955c1.115,1.893,3.17,2.772,5.218,3.279c2.314,0.573,4.69,0.936,7.037,1.343
						c10.265,1.781,20.645,3.468,31.009,4.558c5.182,0.545,10.202,0.394,15.22-1.102c4.743-1.414,9.366-3.357,13.907-5.314
						c8.953-3.859,17.904-8.123,26.119-13.401c1.996-1.282,3.919-2.663,5.739-4.185c1.583-1.323,3.892-2.941,3.906-5.224
						c0.03-4.633-5.722-6.842-9.423-7.6c-4.686-0.961-9.6-1.092-14.361-1.435c-5.116-0.369-10.237-0.667-15.361-0.882
						c-10.411-0.436-20.846-0.496-31.259-0.099c-4.821,0.184-9.696,0.318-14.486,0.919c-4.049,0.509-8.303,1.557-11.307,4.496
						c-1.536,1.503-2.729,2.721-4.989,2.884c-2.495,0.18-5.081-0.107-7.577-0.206c-5.233-0.209-10.465-0.46-15.696-0.707
						c-10.38-0.49-20.76-0.994-31.14-1.503C187.705,320.863,183.537,320.598,180.894,320.448z M242.339,335.522
						c0.289-0.743,1.342-0.316,1.017,0.429c-1.678,3.845,3.512,5.551,6.274,5.825c3.468,0.345,6.916,0.956,10.363,1.465
						c7.063,1.044,14.137,2.007,21.214,2.947c3.455,0.459,6.934,0.955,10.428,0.857c3.584-0.1,6.996-1.039,10.273-2.46
						c6.111-2.65,11.958-6.036,17.673-9.441c3.327-1.982,6.641-3.987,9.909-6.064c3.254-2.068,6.5-4.247,9.922-6.028
						c0.399-0.208,0.893,0.34,0.507,0.658c-2.887,2.383-6.064,4.48-9.183,6.543c-3.099,2.05-6.189,4.108-9.35,6.061
						c-6.126,3.785-12.423,7.603-19.077,10.397c-3.259,1.368-6.634,2.285-10.178,2.441c-3.827,0.169-7.642-0.406-11.424-0.911
						c-7.757-1.036-15.498-2.199-23.227-3.423c-3.806-0.603-8.167-0.882-11.686-2.569
						C243.357,341.081,241.252,338.315,242.339,335.522z"/>
					<path fill="#AD4040" d="M323.325,302.972c-1.491-7.07-3.567-14.004-5.367-20.999c-2.401-9.329-4.79-18.745-8.145-27.789
						c0.09-0.081,0.185-0.157,0.273-0.239c0.157,0.039,0.32,0.039,0.473,0.006c3.832,8.969,7.23,18.115,10.139,27.43
						c1.741,5.577,3.287,11.207,4.717,16.871c1.41,5.585,2.328,11.332,3.907,16.867c-1.288-0.099-2.575-0.178-3.857-0.259
						C324.85,310.88,324.156,306.914,323.325,302.972z"/>
					<path fill="#AD4040" d="M302.104,259.305c1.724-0.948,3.512-1.968,5.181-3.132c1.094,3.022,2.083,6.083,3.002,9.163
						c2.023,6.773,3.722,13.636,5.497,20.476c1.839,7.086,3.871,14.096,5.254,21.292c0.482,2.508,0.913,5.025,1.312,7.545
						c-4.567-0.329-9.139-0.6-13.714-0.808c-1.719-9.649-3.495-19.287-5.724-28.833c-1.793-7.681-3.909-15.378-6.771-22.761
						C298.164,261.34,300.16,260.374,302.104,259.305z"/>
					<path fill="#AD4040" d="M285.21,285c-1.213-5.664-2.526-11.295-4.031-16.877c3.678-1.265,7.317-2.642,10.906-4.131
						c0.415-0.172,0.829-0.346,1.243-0.52c0.664,1.718,1.286,3.454,1.872,5.201c4.391,13.109,6.997,26.788,9.469,40.363
						c0.284,1.557,0.561,3.114,0.838,4.672c-5.03-0.196-10.063-0.318-15.096-0.358C288.99,303.839,287.217,294.377,285.21,285z"/>
					<path fill="#AD4040" d="M269.634,271.692c2.908-0.798,5.799-1.667,8.668-2.603c1.728,6.409,3.167,12.9,4.516,19.394
						c1.711,8.243,3.193,16.532,4.449,24.856c-4.623-0.004-9.247,0.063-13.868,0.218c-0.467,0.016-0.935,0.03-1.403,0.045
						c-0.699-5.381-1.31-10.776-2.016-16.155c-1.095-8.342-2.17-16.699-2.868-25.083
						C267.954,272.145,268.795,271.922,269.634,271.692z"/>
					<path fill="#AD4040" d="M251.471,291.278c-0.131-5.154-0.187-10.31-0.171-15.465c4.294-0.758,8.564-1.654,12.8-2.689
						c0.172,2.002,0.365,4.002,0.575,6.001c0.732,6.947,1.659,13.871,2.566,20.796c0.601,4.587,1.129,9.185,1.714,13.775
						c-3.423,0.118-6.86,0.304-10.219,0.85c-2.136,0.347-4.208,0.916-6.112,1.814C252.203,308,251.683,299.65,251.471,291.278z"/>
					<path fill="#AD4040" d="M235.749,319.926c0.034-6.578-0.01-13.156,0.098-19.733c0.122-7.44,0.41-14.909,1.163-22.322
						c3.155-0.348,6.298-0.786,9.413-1.257c0.604-0.091,1.208-0.188,1.811-0.284c-0.012,6.328,0.085,12.655,0.291,18.98
						c0.249,7.625,0.741,15.236,1.122,22.853c-0.602,0.464-1.175,0.978-1.715,1.548c-1.02,1.078-1.96,1.959-3.519,2.09
						c-1.254,0.105-2.56-0.072-3.812-0.145c-1.619-0.093-3.239-0.179-4.858-0.267C235.744,320.903,235.746,320.414,235.749,319.926z
						"/>
					<path fill="#AD4040" d="M222.781,281.956c-1.613,12.849-0.936,25.819-0.852,38.73c-1.886-0.09-3.772-0.18-5.657-0.271
						c0.356-6.907,0.865-13.804,1.673-20.675c0.822-6.99,2.005-13.905,3.15-20.846c0.016-0.099,0.013-0.192-0.001-0.279
						c0.625,0.004,1.243,0.006,1.849,0.016c0.104,0.002,0.209,0.001,0.314,0.003C223.08,279.738,222.92,280.845,222.781,281.956z"/>
					<path fill="#AD4040" d="M224.992,320.409c-0.047-6.526-0.239-13.051-0.203-19.578c0.04-7.372,0.338-14.884,1.53-22.213
						c2.531-0.056,5.066-0.21,7.598-0.436c-0.118,1.197-0.225,2.396-0.321,3.595c-1.051,13.12-0.87,26.295-0.919,39.446
						c-0.144-0.008-0.288-0.016-0.432-0.024c-2.417-0.127-4.835-0.246-7.252-0.364C224.992,320.693,224.993,320.551,224.992,320.409
						z"/>
					<path fill="#E5E3DC" d="M142.515,317.18c3.141,0.033,6.259,0.194,9.369,0.332c3.019,0.134,6.038,0.265,9.053,0.411
						c0.05,2.225,0.424,4.458,1.231,6.425c-2.387-0.146-4.777-0.281-7.159-0.436c-3.043-0.198-6.107-0.347-9.129-0.606
						c-2.443-0.21-5.411-0.61-6.659-2.436c-0.478-0.7-0.908-1.868-0.099-2.779C139.965,317.145,141.468,317.169,142.515,317.18z"/>
					<path fill="#E5E3DC" d="M214.087,320.309c-1.729-0.086-3.485-0.176-5.26-0.27c0.1-4.093,0.208-8.189,0.324-12.28
						c0.297,0.041,0.595,0.078,0.897,0.106c0.568,0.052,3.257,0.217,4.884,0.315C214.562,312.23,214.284,316.28,214.087,320.309z"/>
					<path fill="#E5E3DC" d="M214.012,307.556c-0.024-0.01-0.048-0.02-0.072-0.03c0.004-0.029,0.008-0.057,0.011-0.086
						C213.969,307.481,213.99,307.519,214.012,307.556z"/>
					<path fill="#E5E3DC" d="M214.071,306.714c-0.009,0.009-0.019,0.017-0.028,0.026c0.001-0.01,0.003-0.019,0.004-0.029
						C214.055,306.712,214.063,306.713,214.071,306.714z"/>
					<path fill="#E5E3DC" d="M168.029,306.159c3.448-3.158,4.484-8.299,5.919-12.566c1.595-4.743,3.179-9.491,4.768-14.237
						c1.635,3.08,4.68,7.023,11.737,8.615c-3.132,5.44-4.345,9.473-5.789,15.582c-0.605,2.562-0.748,5.138,0.056,7.672
						c0.751,2.367,2.044,4.504,2.982,6.794c0.084,0.205,0.234,0.545,0.387,0.938c-1.701-0.081-3.387-0.158-5.046-0.228
						c-0.992-0.598-2.043-0.882-2.858,0.046c-0.54,0.615-0.648,1.519-0.643,2.306c0.01,1.304,0.194,2.632,0.293,3.932
						c0.108,1.416,0.286,2.846,0.309,4.266c0.014,0.9-0.021,2.19-0.779,2.816c-2.184,1.805-4.964-4.001-5.458-5.461
						c-0.77-2.274-1.113-4.667-0.914-7.06c0.02-0.235-0.303-0.232-0.376-0.051c-1.086,2.678-1.107,5.596-0.027,8.279
						c0.426,1.059,1.076,2.316,1.916,3.403c-0.762-0.235-1.54-0.447-2.24-0.871c-1.268-0.769-2.437-1.829-3.228-3.088
						c-1.735-2.761-1.524-5.932-1.13-9.018c0.023-0.176-0.238-0.268-0.347-0.144c-2.404,2.738-1.932,7.067-0.087,9.969
						c-1.321-0.736-2.365-1.73-3.11-3.245c-1.065-2.165-1.352-4.753-1.513-7.132c-0.15-2.219,0.013-4.593,0.925-6.651
						C164.698,308.939,166.395,307.655,168.029,306.159z"/>
					<path fill="#E5E3DC" d="M208.066,290.468c0.785-4.641,2.095-9.441,1.041-14.144c0.55,0.367,1.139,0.684,1.758,0.941
						c2.67,1.106,5.729,1.295,8.702,1.338c-2.088,8.963-3.506,18.178-4.427,27.408c-2.209-0.078-6.809-0.44-8.329-1.023
						C206.927,300.116,207.251,295.282,208.066,290.468z"/>
					<g>
						<path fill="#064C1A" d="M211.534,264.988c3.409-1.515,6.244-3.418,8.787-6.182c2.644-2.874,5.073-6.116,6.491-9.781
							c2.782-7.188,1.929-15.319-1.491-22.129c-1.899-3.781-4.675-6.829-7.262-10.127c-0.273-0.348,0.067-0.924,0.508-0.658
							c3.371,2.038,5.894,5.355,7.829,8.736c1.974,3.447,3.251,7.241,3.736,11.184c0.514,4.183,0.064,8.461-1.308,12.447
							c-1.349,3.92-3.686,7.312-6.404,10.408c-2.728,3.108-6.353,6.46-10.675,6.882C211.342,265.808,211.16,265.154,211.534,264.988
							z"/>
						<path fill="#064C1A" d="M281.18,262.606c-2.71,0-2.715-4.212,0-4.212C283.89,258.393,283.894,262.606,281.18,262.606z"/>
						<path fill="#064C1A" d="M282.677,225.517c0.125,0.026,0.243,0.086,0.334,0.19c1.22,1.391,1.805,3.589,2.491,5.293
							c0.739,1.837,1.417,3.699,2.11,5.554c1.447,3.87,2.792,7.763,4.025,11.706c1.046,3.346,2.288,6.924,1.348,10.45
							c-0.626,2.348-2.376,4.875-4.97,5.141c-0.247,0.025-0.31-0.332-0.121-0.446c2.639-1.585,4.147-4.063,4.156-7.187
							c0.01-3.497-1.493-6.933-2.707-10.149c-1.256-3.327-2.469-6.669-3.779-9.975c-0.67-1.692-1.387-3.365-2.066-5.053
							c-0.58-1.443-1.466-2.984-1.68-4.542C282.138,226.202,282.424,225.873,282.677,225.517z"/>
						<path fill="#064C1A" d="M277.578,248.877c0.127-0.026,0.256-0.043,0.39-0.043c0.271-0.01,0.523,0.046,0.757,0.169
							c0.244,0.079,0.454,0.215,0.632,0.406c0.192,0.178,0.327,0.389,0.406,0.632c0.123,0.234,0.179,0.487,0.169,0.757
							c-0.023,0.174-0.047,0.348-0.07,0.522c-0.093,0.333-0.262,0.622-0.505,0.867l-0.398,0.307
							c-0.307,0.178-0.637,0.267-0.992,0.268c-0.271,0.01-0.523-0.046-0.757-0.169c-0.244-0.079-0.454-0.215-0.632-0.406
							c-0.132-0.123-0.236-0.263-0.315-0.417C276.867,250.917,277.302,249.914,277.578,248.877z"/>
					</g>
				</g>
				<path fill="#064C1A" d="M228.672,180.397c-0.077,0-0.077-0.12,0-0.12C228.749,180.277,228.749,180.397,228.672,180.397z"/>
				<path fill="#064C1A" d="M221.171,188.867c-0.637-0.351-1.48-0.53-2.174-0.296c0,0.027,0.001,0.055-0.005,0.085
					c-0.058,0.306-0.199,0.584-0.136,0.904c0.058,0.296,0.271,0.581,0.503,0.769c0.546,0.441,1.191,0.395,1.798,0.124
					c0.07-0.032,0.186,0.023,0.15,0.115c-0.395,1.003-1.702,0.976-2.458,0.424c-0.375-0.274-0.763-0.842-0.898-1.403
					c-0.09,0.235-0.13,0.491-0.102,0.736c0.043,0.381,0.325,0.662,0.205,1.048c-0.041,0.133-0.16,0.226-0.3,0.229
					c-0.628,0.01-0.821-0.761-0.844-1.277c-0.028-0.627,0.194-1.265,0.592-1.747c0.987-1.195,2.809-1.071,3.979-0.237
					C221.794,188.564,221.521,189.059,221.171,188.867z"/>
				<path fill="#064C1A" d="M244.513,155.922c-1.818,0.199-3.655-0.308-5.382,0.555c-1.802,0.901-2.062,2.551-2.545,4.301
					c-0.045,0.162-0.261,0.225-0.38,0.1c-1.677-1.755-0.017-4.375,1.636-5.433c1.931-1.236,5.057-1.458,6.731,0.334
					C244.625,155.836,244.584,155.914,244.513,155.922z"/>
				<path fill="#064C1A" d="M262.826,169.653c-2.18-0.455-4.414-0.215-6.069,1.437c-1.377,1.375-2.039,3.291-2.864,5.009
					c-1.55,3.227-4.752,7.09-8.745,6.81c-2.964-0.208-6.155-3.1-4.714-6.281c1.088-2.402,5.345-3.044,5.663,0.205
					c0.047,0.476-0.692,0.47-0.742,0c-0.152-1.433-1.757-1.771-2.842-1.285c-0.885,0.397-1.551,1.221-1.599,2.215
					c-0.09,1.85,1.372,3.203,3.1,3.449c3.369,0.48,6.299-2.29,7.814-5c1.286-2.302,2.002-5.029,4.172-6.71
					c1.967-1.525,4.96-1.896,7.102-0.504C263.448,169.222,263.226,169.737,262.826,169.653z"/>
				<path fill="#064C1A" d="M269.144,181.222c-1.762,0.614-4.402,0.145-5.279-1.703c-0.041-0.086,0.051-0.156,0.129-0.117
					c1.649,0.832,3.281,1.402,5.105,0.6c1.582-0.695,2.324-2.131,3.128-3.549c0.153-0.27,0.54-0.096,0.539,0.177
					C272.754,178.706,271.033,180.564,269.144,181.222z"/>
				<path fill="#064C1A" d="M339.895,162.963c2.145-0.412,3.858,0.908,5.024,2.559c0.163,0.23-0.177,0.443-0.366,0.283
					c-1.201-1.014-2.849-1.919-4.461-1.478c-1.257,0.344-2.125,1.451-3.043,2.316c-0.07,0.066-0.196,0.041-0.22-0.058
					C336.366,164.699,338.208,163.287,339.895,162.963z"/>
				<g>
					<path fill="#E5E3DC" d="M200.038,121.547c-0.774,0.345-1.636,0.419-2.458,0.612c-0.949,0.222-1.887,0.523-2.79,0.889
						c-1.828,0.742-3.554,1.848-4.986,3.206c-2.684,2.545-4.554,6.282-5.307,9.894c-0.058,0.278-0.5,0.215-0.494-0.067
						c0.05-2.101,0.302-3.829,1.223-5.747c0.896-1.867,2.145-3.584,3.662-4.996c1.517-1.411,3.278-2.503,5.199-3.274
						c1.666-0.669,4.115-1.479,5.902-0.889C200.139,121.224,200.21,121.47,200.038,121.547z"/>
					<path fill="#E5E3DC" d="M254.607,133.958c0.115-6.841-3.158-14.01-8.763-18.005c-2.871-2.047-6.251-3.319-9.757-3.695
						c-1.81-0.194-3.659-0.165-5.458,0.117c-1.562,0.245-3.22,1.049-4.792,1.008c-0.238-0.006-0.364-0.297-0.195-0.47
						c1.188-1.214,3.461-1.512,5.069-1.739c1.781-0.252,3.586-0.29,5.376-0.101c3.757,0.397,7.464,1.712,10.51,3.973
						c5.941,4.409,9.185,11.579,8.392,18.912C254.964,134.198,254.603,134.21,254.607,133.958z"/>
					<path fill="#064C1A" d="M137.498,322.289c1.379,1.775,4.074,2.33,6.566,2.626c3.342,0.397,6.813,0.504,10.218,0.726
						c2.968,0.193,5.93,0.418,8.9,0.615c1.29,1.938,3.278,3.588,5.608,3.469c0.687,0.711,1.473,1.324,2.347,1.784
						c1.287,0.678,3.23,1.565,4.723,1.12c0.662,0.545,1.398,0.944,2.199,1.093c2.033,0.379,3.15-1.399,3.385-3.157
						c0.144-1.081,0.044-2.182-0.056-3.27c0.02,0.213,5.854,0.206,6.282,0.216c3.616,0.083,7.169,0.217,10.783,0.508
						c10.191,0.817,20.54,1.514,30.623,3.228c0.649,0.11,7.403,1.552,7.46,1.41c-0.732,1.808-1.376,3.673-1.702,5.59
						c-0.678,3.987,0.189,8.446,3.663,10.912c1.783,1.266,3.988,1.79,6.103,2.189c2.705,0.51,35.944,5.607,40.547,5.76
						c5.408,0.18,10.474-0.96,15.526-2.814c4.861-1.784,9.665-3.769,14.37-5.931c4.834-2.221,9.584-4.636,14.239-7.211
						c4.291-2.373,8.511-4.885,12.361-7.937c3.179-2.52,7.371-5.839,5.436-10.367c-1.588-3.714-5.8-5.698-9.512-6.573
						c-2.275-0.536-4.617-0.839-6.972-1.049c0.002-0.029,0.004-0.058,0.001-0.089c-0.271-3.315-1.008-6.606-1.696-9.855
						c-0.678-3.199-1.399-6.392-2.202-9.563c-2.908-11.472-6.538-22.765-10.843-33.789c-2.121-5.431-4.328-10.873-6.885-16.115
						c-0.137-0.28-0.275-0.56-0.412-0.84c-1.756-4.602-3.796-9.123-5.854-13.538c-1.442-3.092-2.942-6.228-4.582-9.29
						c0.04-0.082,0.067-0.175,0.075-0.283c0.036-0.528,0.041-1.053,0.034-1.58c4.829-1.276,9.588-3.308,14.095-5.442
						c8.391-3.974,15.519-9.633,20.601-17.466c4.63-7.137,7.774-15.615,8.808-24.085c0.496-0.06,0.991-0.183,1.476-0.38
						c1.511-0.612,2.558-1.805,3.749-2.863c1.618-1.438,3.749-1.722,5.826-1.325c2.003,0.382,3.814,1.337,5.648,2.185
						c0.909,0.42,2.335,1.339,3.237,0.435c0.933-0.934,0.441-2.867-0.018-3.909c-0.652-1.479-1.87-2.604-3.268-3.378
						c-1.75-0.969-3.823-1.59-5.921-1.888c2.805-0.245,5.697,0.383,8.465,1.002c1.316,0.295,2.865,0.898,3.964-0.201
						c0.906-0.905,0.987-2.348,0.604-3.509c-0.525-1.592-1.71-2.605-3.126-3.228c0.527-0.115,0.97-0.41,1.232-1.071
						c0.401-1.012-0.006-2.082-0.762-2.801c-2.275-2.162-6.497-2.482-9.451-2.316c-3.509,0.197-7.012,1.296-10.142,2.868
						c-3.381,1.699-6.637,4.307-10.519,4.66c-0.341-0.147-0.673-0.321-0.984-0.547c-0.878-0.639-1.558-1.525-2.241-2.356
						c-2.339-2.849-5.48-4.976-9.235-5.32c-1.48-0.135-3.311,0.111-4.378,1.269c-0.889,0.964-0.585,2.104,0.35,2.888
						c1.322,1.108,3.022,1.755,4.446,2.725c1.682,1.146,3.147,2.642,4.251,4.353c1.471,2.28,2.237,4.874,2.514,7.537
						c-0.165,2.084-0.836,4.162-1.818,6.028c-3.492,6.636-10.118,11.356-16.804,14.398c-3.832,1.743-7.893,2.966-11.978,3.956
						c-2.121,0.514-4.257,0.959-6.4,1.37c-1.112,0.213-2.227,0.392-3.312,0.722c-0.863,0.263-1.695,0.605-2.57,0.818
						c-0.006-0.011-0.012-0.022-0.017-0.033c-0.714-1.303-1.676-2.91-3.051-3.588c-0.046-0.023-0.094-0.036-0.142-0.043
						c-0.443-2.892-1.11-5.748-2.006-8.531c-1.214-3.771-2.717-7.429-4.735-10.844c-1.083-1.832-2.272-3.632-3.654-5.255
						c2.091,0.594,4.419,2.219,5.722,2.871c2.169,1.087,5.389,2.411,7.485,0.465c1.563-1.45,1.48-4.138-0.574-5.107
						c-1.795-0.847-3.699,0.736-3.165,2.62c0.014,0.05,0.101,0.042,0.094-0.013c-0.274-2.105,2.517-3.143,3.598-1.247
						c0.775,1.359-0.188,2.923-1.527,3.43c-2.372,0.898-5.295-1.056-7.285-2.149c-1.652-0.908-3.584-2.129-5.545-2.177
						c-0.891-0.899-1.859-1.72-2.926-2.431c-0.075-0.05-0.149-0.08-0.222-0.101c0.078-1.078,0.095-2.244-0.189-3.278
						c-0.487-1.772-2.187-3.069-3.995-2.309c-0.474,0.199-0.916,0.438-1.359,0.67c-0.746-1.088-1.621-2.069-2.596-2.938
						c0.253-0.39,0.61-0.674,1.282-0.687c1.09-0.021,2.061,0.682,2.931,1.251c0.171,0.112,0.362-0.105,0.27-0.27
						c-0.642-1.149-2.539-2.232-3.861-2.023c-0.582,0.092-1.167,0.433-1.622,0.901c-0.84-0.645-1.739-1.215-2.68-1.71
						c0.52-0.915,1.936-0.907,2.788-1.487c0.556-0.379,1.036-0.904,1.259-1.548c0.446-1.29-0.271-2.573-1.414-3.208
						c-0.122-0.068-0.245-0.118-0.368-0.161c0.031-0.042,0.06-0.089,0.081-0.145c0.747-1.994,1.394-4.023,1.762-6.123
						c1.318-7.518,0.02-15.583-4.265-21.973c-3.973-5.924-10.146-9.648-17.191-10.619c-3.453-0.476-6.97-0.31-10.371,0.453
						c-3.691,0.827-6.932,2.585-10.288,4.257c-1.854,0.924-3.756,1.723-5.801,2.109c-2.174,0.41-4.408,0.382-6.609,0.49
						c-3.969,0.194-7.933,0.863-11.667,2.252c-6.716,2.498-12.555,7.443-15.066,14.286c-1.445,3.938-1.228,8.218-2.346,12.235
						c-0.982,3.528-2.7,6.781-4.417,9.995c-3.351,6.272-6.755,12.736-5.78,20.081c0.93,7.013,5.082,13.289,10.344,17.866
						c5.728,4.982,13.154,8.388,20.84,8.319c6.516-0.059,13.371-2.769,17.319-8.085c0.655,1.505,1.992,2.688,3.806,3.066
						c1.605,0.334,3.276-0.021,4.523-0.885c0.149,0.301,0.434,0.411,0.784,0.641c0.647,0.425,1.278,0.868,1.857,1.383
						c0.522,0.464,1.014,0.962,1.472,1.489c0.417,0.48,0.756,1.052,1.232,1.472c0.116,0.23,0.229,0.462,0.339,0.695
						c-1.982-1.088-4.425-0.106-5.764,1.781c-0.961,1.355-1.48,2.968-2.036,4.516c-0.572,1.594-1.09,3.286-0.879,4.998
						c0.052,0.422,0.14,0.829,0.256,1.221c-3.265,1.446-6.238,3.897-9.025,6.1c-2.894,2.287-5.653,4.74-8.255,7.355
						c-9.279,9.328-16.646,20.486-21.564,32.687c-1.23,3.053-2.304,6.169-3.209,9.333c-0.82,2.865-2.538,6.807-0.53,9.487
						c0.118,0.157,0.242,0.311,0.37,0.463c-1.669,4.948-3.339,9.895-5.006,14.843c-0.731,2.171-1.427,4.356-2.183,6.519
						c-0.673,1.922-1.499,3.873-2.882,5.401c-1.269,1.402-2.806,2.509-3.85,4.113c-0.937,1.44-1.503,3.142-1.79,4.828
						c-0.167,0.984-0.276,2.013-0.318,3.057c-5.276-0.482-10.581-0.857-15.961-1.058c-2.343-0.088-5.433-0.398-7.4,1.75
						C136.026,318.842,136.463,320.956,137.498,322.289z M227.64,201.332c0.229,0.229,0.507,0.224,0.724,0.102
						c0.408,0.993,0.776,2.003,1.106,3.027c0.276,0.857,0.459,1.767,0.719,2.639c-1.525-1.514-3.055-3.019-4.76-4.327
						c-0.118-0.091-0.225,0.077-0.18,0.18c1.705,3.945,5.296,6.913,8.567,9.58c3.383,2.759,7.024,5.189,10.794,7.385
						c4.087,2.38,8.324,4.574,12.671,6.441c4.231,1.818,8.657,3.806,13.186,4.771c-0.247,0.705-0.305,1.492-0.114,2.184
						c-6.271-0.102-12.415-0.527-18.506-2.159c-8.232-2.206-15.899-5.968-22.775-10.993c-2.531-1.849-4.965-3.845-7.201-6.041
						c-0.684-0.672-1.374-1.165-1.725-2.095c-0.29-0.768-0.357-1.603-0.276-2.417c0.16-1.607,0.851-3.125,1.602-4.534
						c0.654-1.227,1.273-2.538,2.351-3.459C224.824,200.764,226.613,200.307,227.64,201.332z M255.179,143.072
						c0.331-1.513-0.358-3.124-1.502-4.11c-2.753-2.375-7.296-1.303-9.485,1.355c-0.497,0.604-0.795,1.237-0.978,1.896
						c-0.531-0.501-1.059-1.002-1.57-1.507c-1.786-1.765-3.611-3.596-5.741-4.951c-1.847-1.176-3.985-1.88-6.19-1.691
						c-2.095,0.18-4.05,1.022-5.936,1.905c0.247-1.586,0.175-3.225-0.05-4.812c-0.277-1.954-0.67-4.287-2.229-5.625
						c-0.129-0.11-0.349-0.043-0.347,0.144c0.017,1.898,0.931,3.656,1.285,5.516c0.331,1.737,0.372,3.465,0.422,5.214
						c-3.926,1.89-7.713,4.094-11.075,6.882c-2.935,2.435-5.56,5.367-7.385,8.736c-2.458-0.936-4.942-1.511-7.293-2.765
						c-1.153-0.615-2.259-1.319-3.301-2.106c-0.99-0.748-1.876-1.545-3.012-2.073c-0.177-0.082-0.347,0.084-0.262,0.262
						c1.118,2.342,3.963,3.866,6.196,4.973c2.223,1.102,4.907,2.169,7.439,2.143c-0.249,0.482-0.482,0.973-0.696,1.473
						c-1.597,3.729-2.587,8.586-1.145,12.524c0.067,0.184,0.353,0.164,0.352-0.048c-0.005-2.478-0.014-4.754,0.537-7.193
						c0.521-2.305,1.448-4.511,2.593-6.573c4.128-7.435,11.705-12.16,19.228-15.628c2.18-1.005,4.57-1.891,6.999-1.374
						c2.078,0.443,3.913,1.734,5.519,3.069c1.755,1.458,3.45,2.998,5.173,4.494c0.087,0.075,0.173,0.154,0.26,0.23
						c-0.083,0.744-0.092,1.515-0.133,2.309c-0.066,1.275-0.308,2.635-0.959,3.754c-0.63,1.084-1.519,1.567-2.623,1.978
						c-3.497,1.039-6.741,2.931-9.448,5.433c-2.023,1.549-3.835,3.32-5.325,5.171c-4.98,6.187-7.163,14.267-6.158,22.123
						c-0.406,0.034-0.805,0.103-1.191,0.208c-1.466-1.838-2.984-3.636-4.484-5.446c-0.856-1.033-1.719-2.061-2.569-3.099
						c-0.876-1.07-2.049-2.201-2.624-3.454c-0.152-0.332-0.615-0.471-0.941-0.383c-0.277,0.075-0.376,0.119-0.498,0.383
						c-0.203,0.438-0.097,0.864,0.299,1.141c1.109,0.775,2.005,2.174,2.876,3.201c0.868,1.023,1.724,2.055,2.585,3.083
						c1.403,1.673,2.795,3.36,4.224,5.012c-1.073,0.554-1.959,1.461-2.467,2.761c-0.24,0.615-0.368,1.242-0.394,1.857
						c-0.203,0.023-0.402,0.114-0.566,0.303c-5.087,5.844-12.632,8.597-20.299,7.4c-7.813-1.22-15.321-5.765-20.047-12.108
						c-3.936-5.282-5.923-11.86-4.415-18.382c1.524-6.585,5.673-12.154,8.269-18.313c1.394-3.308,2.051-6.63,2.48-10.18
						c0.427-3.539,1.212-6.818,3.168-9.839c3.945-6.095,10.786-9.507,17.77-10.749c3.827-0.68,7.732-0.412,11.558-1.052
						c3.66-0.612,6.834-2.525,10.103-4.163c5.962-2.987,12.959-4.093,19.455-2.286c6.703,1.864,11.902,6.757,14.691,13.073
						c3.177,7.193,2.767,15.43,0.814,22.894c-0.021,0.081-0.025,0.156-0.016,0.223c-0.331-0.044-0.665-0.084-0.998-0.191
						C253.576,145.596,254.99,143.935,255.179,143.072z M281.559,207.083c0.144-1.131,0.249-2.266,0.322-3.404
						c0.653,3.757,0.466,7.615-0.488,11.349c-1.244,4.868-3.625,9.295-6.244,13.546c-0.031,0.05-0.048,0.098-0.056,0.145
						c-0.706-0.016-1.413,0.129-2.05,0.43c-1.005-0.137-1.839,0.508-2.33,1.421c-4.215-2.033-8.694-3.538-12.93-5.542
						c-4.149-1.963-8.262-3.982-12.231-6.294c-3.843-2.238-7.56-4.714-10.994-7.545c-1.179-0.972-2.282-2.028-3.368-3.098
						c0.044-1.414-0.485-2.964-0.888-4.308c-0.427-1.425-0.953-2.821-1.546-4.185c-1.271-2.919-2.85-5.665-4.771-8.204
						c-0.047-0.062-0.097-0.112-0.149-0.156c0.096-0.494,0.111-1.026,0.027-1.591c-0.081-0.542-0.856-0.351-0.893,0.121
						c-0.242,3.084-3.511,5.106-6.293,3.517c-2.193-1.253-2.552-4.651-0.867-6.47c1.897-2.047,5.234-1.472,7.288-0.005
						c2.399,1.714,3.581,4.534,4.608,7.187c0.086,0.223,0.298,0.469,0.571,0.435c2.394-0.302,2.01-2.81,1.318-4.449
						c-1.208-2.859-2.267-5.783-3.068-8.784c-1.349-5.055-2.725-10.864-0.656-15.91c1.81-4.415,5.589-8.159,9.705-10.47
						c0.831-0.467,1.683-0.865,2.548-1.205c0.047,0.016,0.098,0.021,0.148,0.01c0.442-0.103,0.826-0.315,1.213-0.492
						c0.322-0.102,0.646-0.194,0.971-0.279c0.2-0.012,0.41,0.007,0.639,0.073c0.831,0.242,1.421,0.969,2.173,1.362
						c1.602,0.838,2.618-0.186,4.152-0.493c1.846-0.37,2.962,2.129,4.921,1.865c1.005-0.135,1.523-0.771,1.793-1.561
						c0.918,0.439,1.808,0.95,2.661,1.536c-0.166,0.423-0.22,0.873-0.107,1.306c0.122,0.468,0.689,0.453,0.94,0.123
						c0.133-0.175,0.238-0.367,0.332-0.564c0.836,0.669,1.629,1.414,2.37,2.235c-0.416,0.192-0.848,0.355-1.322,0.453
						c-1.208,0.249-2.497,0.171-3.688-0.128c-1.1-0.277-2.237-0.756-3.245-1.274c-0.576-0.296-1.147-0.624-1.592-1.104
						c-0.505-0.544-0.742-1.223-1.185-1.798c-0.074-0.096-0.221-0.093-0.262,0.034c-0.547,1.697,1.731,3.777,2.919,4.695
						c1.565,1.208,3.907,1.69,5.855,1.556c1.003-0.069,1.986-0.284,2.911-0.681c1.044-0.448,2.395-2.112,3.523-1.501
						c1.283,0.695,1.282,2.926,1.268,4.156c-0.012,1.042-0.56,2.421-0.031,3.358c0.036,0.064,0.133,0.095,0.197,0.052
						c0.494-0.334,0.695-0.915,0.791-1.534c0.517,0.369,1.012,0.766,1.484,1.191c-0.768,0.407-1.329,1.115-1.365,2.074
						c-0.011,0.291,0.439,0.431,0.569,0.154c0.385-0.823,0.947-1.266,1.615-1.445c2.314,2.34,4.095,5.271,5.634,8.116
						c3.685,6.811,5.834,14.208,6.306,21.947c0.471,7.721-0.86,15.301-3.179,22.643c-0.071,0.225,0.281,0.376,0.383,0.161
						C279.833,215.834,280.996,211.499,281.559,207.083z M284.878,249.668c0.001,0.005,0.004,0.01,0.005,0.015
						c-0.007-0.004-0.012-0.008-0.019-0.012c-0.985-0.634-1.929-1.361-2.773-2.173c-0.889-0.857-1.674-1.876-2.3-2.974
						c-0.38-0.667-0.701-1.363-0.952-2.07c-0.308-0.868-0.444-1.763-0.655-2.655c-0.103-0.436-0.251-0.884-0.312-1.328
						c-0.053-0.378-0.204-0.697-0.355-1.051c-0.08-0.189-0.16-0.378-0.241-0.567c-0.025-0.06-0.061-0.225-0.114-0.267
						c0.608-0.335,1.102-0.799,1.464-1.339c0.642,0.674,1.352,1.286,1.953,2.006c0.798,0.955,1.507,1.956,2.107,3.048
						c1.124,2.046,1.889,4.307,2.129,6.635c0.06,0.583,0.089,1.169,0.089,1.755C284.905,248.985,284.825,249.389,284.878,249.668z
						 M276.521,235.645c-0.167-0.419-0.338-0.836-0.514-1.25c-0.38-0.895-0.759-2.083-1.872-2.243
						c-0.978-0.141-1.892,0.536-2.633,1.4c-0.189-0.744-0.241-1.512,0.172-2.213c0.092-0.155,0.204-0.294,0.325-0.426
						c1.546-1.083,3.498-1.511,5.06-0.096C278.601,232.213,278.378,234.697,276.521,235.645z M277.24,247.915
						c-0.295,1.164-0.695,2.381-1.331,3.405c-0.65,1.048-1.39,2.071-2.05,3.091c-0.182,0.282-0.379,0.563-0.648,0.763
						c-0.349,0.26-0.76,0.373-1.131,0.096c-0.653-0.487-0.834-1.607-1.044-2.337c-0.332-1.157-0.611-2.33-0.83-3.514
						c-0.436-2.367-0.63-4.785-0.494-7.19c0.103-1.808,0.434-3.657,1.19-5.315c0.381-0.834,0.869-1.617,1.461-2.317
						c0.236-0.279,0.485-0.565,0.762-0.804c0.226-0.195,0.449-0.277,0.658-0.274c-0.011,0.039-0.015,0.08-0.003,0.124
						c1.106,4.004,1.868,8.946,0.133,12.915c-0.081,0.186,0.171,0.347,0.279,0.163c1.254-2.138,1.487-4.409,1.46-6.848
						c-0.016-1.442,0.014-3.146-0.44-4.615c0.788,1.623,1.486,3.281,2.075,4.991c0.025,0.072,0.048,0.143,0.073,0.215
						C277.909,242.897,277.867,245.442,277.24,247.915z M285.559,201.355c0.975,3.419,1.322,6.991,0.992,10.531
						c-0.635,6.814-3.643,13.249-8.315,18.226c-0.633-0.692-1.454-1.124-2.323-1.301c5.674-8.101,9.835-19.003,6.081-28.735
						c-0.003-2.176-0.13-4.353-0.388-6.514c0.727,0.898,1.464,1.762,2.019,2.832C284.443,197.971,285.072,199.649,285.559,201.355z
						 M329.62,192.744c-1.574-0.076-3.14-0.539-4.526-1.283c-1.327-0.711-2.503-1.655-3.547-2.735
						c-0.526-0.544-1.012-1.121-1.48-1.714c-0.256-0.324-0.504-0.653-0.753-0.982c-0.123-0.166-0.247-0.331-0.373-0.495
						c-0.038-0.078-0.079-0.13-0.122-0.161c0.002-0.007,0.004-0.013,0.006-0.02c0.034-0.115,0.026-0.227-0.009-0.329
						c1.271-1.019,2.476-2.123,3.599-3.322c2.262-2.415,4.288-5.475,5.374-8.71c0.104-0.017,0.206-0.079,0.248-0.187
						c3.112-8.014-2.333-17.063-10.131-19.632c-0.653-0.215-1.987-0.777-1.288-1.824c0.322-0.482,1.185-0.746,1.706-0.862
						c1.162-0.258,2.394-0.071,3.526,0.237c2.249,0.611,4.285,1.866,5.857,3.584c1.304,1.425,2.328,3.188,4.076,4.135
						c2.013,1.09,4.67,0.922,5.551,3.43c0.192,0.547,0.985,0.454,1.011-0.137c0.083-1.897-1.86-2.941-3.425-3.442
						c-0.123-0.04-0.247-0.077-0.37-0.114c2.984-0.603,5.569-2.337,8.288-3.739c3.794-1.956,7.787-3.604,12.127-3.6
						c2.158,0.002,4.452,0.436,6.367,1.466c0.886,0.477,2.324,1.816,1.248,2.88c-0.531,0.526-2.996-0.049-3.709-0.098
						c-4.105-0.286-8.15,0.392-11.97,1.907c-0.174,0.069-0.281,0.18-0.336,0.305c-0.252-0.332-0.563-0.619-0.924-0.827l1.55,2.309
						c-0.034-0.246-0.099-0.486-0.19-0.716c0.06,0.006,0.124,0.003,0.191-0.014c0.001,0.002,0.001,0.004,0.002,0.006
						c2.877-1.115,5.921-1.776,8.996-1.944c0.392-0.01,0.782-0.013,1.169-0.01c2.798,0.026,7.243,0.731,7.292,4.398
						c0.006,0.424-0.068,0.967-0.324,1.331c-0.598,0.849-1.144,0.633-1.88,0.485c-0.81-0.163-1.612-0.37-2.419-0.55
						c-1.421-0.317-2.851-0.603-4.3-0.762c-2.763-0.303-5.506-0.092-8.046,1.09c-0.026-0.188-0.065-0.373-0.121-0.554l0.001,0.619
						c-0.369,0.249-0.307,0.818,0.002,1.088l0.001,0.36c0.03-0.1,0.055-0.201,0.076-0.303c0.099,0.063,0.217,0.099,0.35,0.09
						c3.754-0.247,8.403,0.031,11.309,2.776c0.759,0.717,1.359,1.651,1.559,2.688c0.081,0.422,0.273,1.446-0.403,1.564
						c-0.213,0.037-1.149-0.514-1.377-0.623c-1.607-0.77-3.193-1.582-4.884-2.158c-3.299-1.123-6.513-0.719-9.16,1.599
						c-1.424,1.247-2.578,2.242-4.583,2.285c-2.035,0.044-3.697-1.199-4.674-2.922c-0.158-0.28-0.572-0.085-0.503,0.212
						c0.561,2.402,2.566,4.078,4.842,4.44c-1.096,0.321-2.111,0.442-3.258-0.165c-0.113-0.06-0.229,0.06-0.172,0.172
						c0.714,1.391,2.366,1.036,3.617,0.439c-1.212,4.212-2.413,8.418-4.101,12.475c-0.859,2.063-1.82,4.087-2.892,6.045
						C332.081,192.438,330.909,192.806,329.62,192.744z M309.064,252.472c-2.997,2.038-5.903,4.054-9.185,5.688
						c-3.584,1.785-7.302,3.292-11.039,4.721c-13.751,5.259-28.039,9.096-42.596,11.317c-7.27,1.109-14.56,1.58-21.88,2.186
						c-3.558,0.295-7.297,0.915-10.842,0.237c-2.057-0.393-4.161-1.486-5.365-3.247c-0.917-1.341-1.707-3.746-0.153-4.877
						c1.9-1.382,4.169-2.224,6.065-3.656c6.106-4.614,10.555-11.321,11.488-19.007c0.527-4.344,0.374-8.674-0.647-12.923
						c-0.47-1.956-1.123-3.874-1.912-5.725c-0.814-1.91-1.727-3.979-3.067-5.581c-0.247-0.296-0.72-0.016-0.587,0.347
						c0.662,1.814,1.593,3.517,2.222,5.352c0.634,1.849,1.115,3.735,1.473,5.656c0.728,3.906,0.871,8.086,0.264,12.019
						c-0.58,3.758-1.985,7.285-4.034,10.512c-1.843,2.903-4.351,5.303-7.037,7.421c-2.499,1.971-5.747,3.502-7.673,6.095
						c-0.174,0.234-1.393,2.485-1.472,2.418c-0.062-0.052-0.124-0.104-0.186-0.156c-0.432-2.268-2.516-4.579-4.534-5.411
						c-0.29-0.12-0.486,0.304-0.291,0.5c0.817,0.824,1.703,1.592,2.444,2.488c0.31,0.375,0.566,0.777,0.806,1.189
						c-1.614-1.184-3.369-2.202-5.27-2.761c-0.258-0.076-0.427,0.314-0.184,0.438c2.299,1.167,4.353,2.416,6.037,4.343
						c-1.445,1.94-2.633,4.138-3.844,6.219c-1.286,2.21-2.523,4.45-3.724,6.706c-3.591-0.894-7.135-2.19-10.268-4.185
						c-1.609-1.024-3.175-2.178-4.608-3.435c-0.567-0.497-1.231-1.051-1.548-1.751c-0.5-1.105-0.055-2.391,0.211-3.506
						c2.854-11.965,8.121-23.3,15.231-33.327c3.612-5.093,7.728-9.812,12.242-14.124c2.189-2.091,4.465-4.087,6.838-5.965
						c2.33-1.845,4.904-3.422,7.173-5.331c1.398,2.996,4.542,5.12,7.104,7.084c3.354,2.571,6.913,4.873,10.659,6.831
						c10.033,5.245,21.927,8.361,33.275,6.733c0.073,0.118,0.155,0.23,0.25,0.335c-0.356,0.518-0.647,1.038-0.854,1.446
						c-0.984,1.938-1.412,4.1-1.535,6.257c-0.139,2.443,0.136,4.911,0.588,7.31c0.293,1.557,0.97,4.054,1.459,5.561
						c0.193,0.595,0.45,1.189,0.912,1.543c1.423,1.094,2.995-1.289,3.716-2.242c0.56-0.74,3.639-4.453,3.432-8.641
						c-0.015-0.311,0.49-0.346,0.65-0.08c0.075,0.124,0.145,0.241,0.208,0.347c0.746,1.262,1.624,2.505,2.653,3.555
						c0.685,0.699,2.088,2.187,3.172,2.066c1.159-0.129,1.137-1.498,1.16-2.377c0.079-2.946-0.602-5.884-1.865-8.54
						c-1.112-2.337-3.029-5.199-5.422-6.47c0.311-1.078,0.189-2.277-0.454-3.317c0.013-0.01,0.025-0.018,0.038-0.029
						c5.252-4.903,8.589-11.662,9.136-18.84c0.294-3.867-0.133-7.818-1.282-11.522c-0.389-1.253-0.855-2.501-1.414-3.697
						c1.231-0.111,2.468-0.033,3.703-0.214c1.277-0.188,2.549-0.472,3.813-0.728c2.69-0.545,5.368-1.158,8.009-1.907
						c5.913-1.679,11.773-4.127,16.757-7.769c0.383,1.195,1.712,2.514,2.355,3.228c1.227,1.365,2.657,2.586,4.27,3.473
						c1.574,0.866,3.31,1.382,5.106,1.483c0.968,0.055,2.102,0.003,3.122-0.298c-0.523,0.88-1.069,1.745-1.642,2.591
						c-4.067,1.962-8.534-1.058-12.278-2.743c-0.161-0.072-0.369-0.024-0.417,0.17c-0.41,1.652,1.037,2.841,2.207,3.764
						c1.462,1.153,2.994,1.919,4.78,2.424c0.102,0.029,0.174-0.131,0.074-0.175c-1.152-0.505-2.271-1.123-3.326-1.809
						c-1.108-0.722-3.292-2.139-3.236-3.705c2.48,1.219,4.671,3.114,7.443,3.647c1.208,0.232,2.502,0.266,3.679-0.052
						c-1.389,1.891-2.916,3.677-4.596,5.323c-2.022-0.256-3.933-0.946-5.622-2.14c-2.001-1.414-3.648-3.272-5.536-4.813
						c-0.127-0.104-0.323,0.026-0.235,0.181c2.003,3.54,5.973,7.736,10.361,7.744c-0.942,0.86-1.924,1.682-2.959,2.451
						c-3.627,2.695-7.625,4.851-11.746,6.686c-4.152,1.849-8.528,3.183-12.618,5.129c-0.146,0.069-0.26,0.186-0.343,0.324
						c-1.49-2.549-3.103-5.013-4.892-7.315c-0.11-0.142-0.282,0.041-0.226,0.174c1.481,3.507,3.259,6.896,4.934,10.315
						c1.312,2.68,2.608,5.366,3.861,8.074c-0.085,0.096-0.123,0.238-0.055,0.391c0.966,2.155,2.014,4.266,3.038,6.392
						C305.109,242.096,307.017,247.302,309.064,252.472z M203.933,305.992c0.005,0.496,0.313,0.84,0.733,1.011
						c0.626,0.255,1.258,0.458,1.898,0.619c-0.452,3.931-0.413,7.799-0.613,11.782c-4.998-0.279-10.123-0.576-15.121-0.833
						c-0.498-1.796-4.023-10.625-3.401-13.741c1.183-5.932,3.459-11.688,5.633-17.278c0.005-0.012,0.007-0.023,0.01-0.035
						c0.609,0.173,1.222,0.332,1.839,0.466c0.291,0.063,0.651-0.034,0.794-0.339c1.062-2.262,2.188-4.484,3.391-6.667
						c0.946-1.718,5.008-6.595,5.639-7.428c0.027-0.035,0.053-0.07,0.08-0.105c0.312,1.723,1.939,4.546,1.95,4.924
						C206.904,283.094,203.884,301.385,203.933,305.992z M206.811,304.988c0.116-4.872,0.44-9.705,1.255-14.52
						c0.785-4.641,2.095-9.441,1.041-14.144c0.55,0.367,1.139,0.684,1.758,0.941c2.67,1.106,5.729,1.295,8.702,1.338
						c-2.088,8.963-3.506,18.178-4.427,27.408C212.931,305.932,208.331,305.571,206.811,304.988z M209.151,307.759
						c0.297,0.041,0.595,0.078,0.897,0.106c0.568,0.052,3.257,0.217,4.885,0.315c-0.37,4.05-0.649,8.1-0.845,12.129
						c-1.729-0.086-3.485-0.176-5.26-0.27C208.928,315.946,209.036,311.85,209.151,307.759z M329.322,315.12
						c-2.103-0.162-4.209-0.27-6.281-0.422c-5.451-0.4-10.907-0.72-16.368-0.945c-11.086-0.457-22.184-0.569-33.275-0.195
						c-4.868,0.164-9.845,0.207-14.663,0.99c-4.076,0.662-7.921,2.117-10.805,5.165c-1.02,1.078-1.96,1.959-3.519,2.09
						c-1.254,0.105-2.56-0.072-3.812-0.145c-2.784-0.16-5.569-0.312-8.354-0.459c-5.324-0.281-10.649-0.527-15.974-0.783
						c0.356-6.907,0.865-13.804,1.673-20.675c0.822-6.99,2.005-13.905,3.15-20.846c0.016-0.1,0.013-0.192-0.001-0.279
						c0.625,0.004,1.243,0.006,1.849,0.016c7.835,0.126,15.744-0.847,23.48-2.017c7.825-1.184,15.58-2.828,23.212-4.923
						c7.629-2.094,15.144-4.667,22.451-7.699c3.407-1.414,6.784-2.909,10.019-4.687c2.743-1.508,5.649-3.199,7.982-5.36
						c0.156,0.039,0.319,0.039,0.473,0.006c3.832,8.969,7.23,18.115,10.139,27.43c1.741,5.577,3.287,11.207,4.717,16.871
						C326.824,303.837,327.742,309.584,329.322,315.12z M180.894,320.448c2.643,0.15,6.811,0.415,9.325,0.539
						c10.38,0.51,20.759,1.013,31.14,1.503c5.232,0.247,10.463,0.499,15.696,0.707c2.497,0.1,5.082,0.386,7.577,0.206
						c2.259-0.163,3.452-1.382,4.989-2.884c3.004-2.938,7.258-3.987,11.307-4.496c4.79-0.602,9.666-0.735,14.486-0.92
						c10.413-0.398,20.848-0.338,31.259,0.099c5.125,0.215,10.246,0.512,15.361,0.882c4.761,0.343,9.675,0.474,14.361,1.435
						c3.701,0.759,9.453,2.968,9.423,7.6c-0.015,2.283-2.323,3.901-3.906,5.224c-1.821,1.521-3.743,2.902-5.739,4.185
						c-8.215,5.277-17.166,9.542-26.119,13.401c-4.54,1.957-9.164,3.9-13.907,5.314c-5.018,1.496-10.038,1.647-15.22,1.102
						c-10.364-1.09-20.744-2.777-31.009-4.558c-2.347-0.407-4.723-0.77-7.037-1.343c-2.048-0.507-4.103-1.386-5.218-3.279
						c-2.428-4.122-0.359-8.905,1.108-12.955c0.161-0.444-0.183-1.099-0.667-1.175c-9.505-1.487-18.975-3.025-28.554-3.979
						c-9.422-0.938-18.856-1.551-28.322-1.713c-0.092-1.163-0.185-2.326-0.268-3.489
						C180.939,321.563,180.85,320.954,180.894,320.448z M163.774,311.024c0.924-2.086,2.621-3.369,4.255-4.866
						c3.448-3.158,4.484-8.299,5.919-12.566c1.595-4.743,3.179-9.491,4.768-14.237c1.635,3.08,4.68,7.023,11.737,8.615
						c-3.132,5.44-4.345,9.473-5.789,15.582c-0.605,2.562-0.748,5.138,0.056,7.672c0.751,2.367,2.044,4.504,2.982,6.794
						c0.084,0.205,0.234,0.545,0.387,0.938c-1.701-0.081-3.387-0.158-5.046-0.228c-0.992-0.598-2.043-0.882-2.858,0.046
						c-0.54,0.615-0.648,1.519-0.643,2.306c0.01,1.304,0.194,2.632,0.293,3.932c0.108,1.416,0.286,2.847,0.309,4.267
						c0.014,0.9-0.021,2.19-0.779,2.816c-2.184,1.805-4.964-4.001-5.458-5.461c-0.77-2.274-1.113-4.667-0.914-7.06
						c0.02-0.235-0.303-0.232-0.376-0.051c-1.086,2.678-1.107,5.596-0.027,8.279c0.426,1.059,1.076,2.316,1.916,3.403
						c-0.762-0.235-1.54-0.447-2.24-0.871c-1.268-0.769-2.437-1.829-3.228-3.088c-1.735-2.761-1.524-5.932-1.129-9.018
						c0.022-0.176-0.239-0.268-0.347-0.144c-2.404,2.738-1.932,7.067-0.087,9.969c-1.321-0.736-2.365-1.73-3.11-3.245
						c-1.065-2.165-1.352-4.753-1.513-7.132C162.699,315.456,162.862,313.082,163.774,311.024z M139.124,318.091
						c0.841-0.947,2.344-0.922,3.391-0.911c3.141,0.033,6.259,0.194,9.369,0.332c3.019,0.134,6.038,0.265,9.053,0.411
						c0.05,2.225,0.424,4.458,1.231,6.425c-2.387-0.146-4.777-0.281-7.159-0.436c-3.043-0.198-6.107-0.347-9.129-0.606
						c-2.443-0.21-5.411-0.61-6.659-2.436C138.745,320.17,138.315,319.002,139.124,318.091z"/>
					<path fill="#064C1A" d="M214.044,306.74c0.001-0.01,0.003-0.019,0.004-0.029c0.008,0.001,0.016,0.002,0.024,0.003
						C214.062,306.723,214.052,306.73,214.044,306.74z"/>
					<path fill="#064C1A" d="M213.94,307.526c0.004-0.029,0.008-0.057,0.011-0.086c0.017,0.041,0.038,0.079,0.061,0.116
						C213.988,307.546,213.964,307.536,213.94,307.526z"/>
				</g>
				<path fill="#064C1A" d="M243.356,335.951c-1.678,3.845,3.512,5.551,6.274,5.825c3.468,0.345,6.916,0.956,10.363,1.465
					c7.063,1.044,14.137,2.007,21.214,2.947c3.455,0.459,6.934,0.955,10.428,0.857c3.584-0.1,6.996-1.039,10.273-2.46
					c6.111-2.65,11.958-6.036,17.673-9.441c3.327-1.982,6.641-3.987,9.909-6.064c3.254-2.068,6.5-4.247,9.922-6.028
					c0.399-0.208,0.893,0.34,0.507,0.658c-2.887,2.383-6.064,4.48-9.183,6.543c-3.099,2.05-6.189,4.108-9.35,6.061
					c-6.126,3.785-12.423,7.603-19.077,10.397c-3.259,1.368-6.634,2.285-10.178,2.441c-3.827,0.169-7.642-0.406-11.424-0.911
					c-7.757-1.036-15.498-2.199-23.227-3.423c-3.806-0.603-8.167-0.882-11.686-2.569c-2.437-1.168-4.542-3.934-3.455-6.726
					C242.628,334.779,243.681,335.206,243.356,335.951z"/>
				<path fill="#064C1A" d="M198.818,173.8c1.148-0.346,2.219-0.824,3.272-1.394c0.487-0.264,0.928-0.625,1.444-0.832
					c0.267-0.107,0.586-0.185,0.874-0.151c0.629,0.075,0.45,0.857,0.219,1.234c-0.332,0.543-0.919,0.872-1.431,1.222
					c-1.051,0.719-2.259,1.254-3.453,1.688c-2.588,0.94-5.329,1.137-8.031,0.666c-5.138-0.896-11.151-1.864-14.091-6.667
					c-0.052-0.085,0.074-0.188,0.141-0.109c3.385,4.016,9.034,4.731,13.939,5.017C194.118,174.614,196.49,174.502,198.818,173.8z"/>
				<path fill="#064C1A" d="M187.117,140.699c-0.347,0-0.347-0.538,0-0.538C187.463,140.161,187.464,140.699,187.117,140.699z"/>
				<path fill="#064C1A" d="M220.551,122.321c-0.121,0.071-0.322,0.038-0.385-0.101c-0.049-0.109-0.098-0.217-0.147-0.326
					c-0.028-0.063-0.062-0.125-0.07-0.194c-0.008-0.065,0.009-0.116,0.037-0.165c0.022-0.117,0.147-0.196,0.255-0.117
					c0.214,0.047,0.313,0.341,0.411,0.518C220.726,122.069,220.684,122.243,220.551,122.321z"/>
				<g>
					<g>
						<path fill="none" d="M281.936,167.241c0.135-0.154,0.345-0.249,0.547-0.249c0.222,0,0.395,0.114,0.529,0.35
							c0.126,0.221,0.143,0.451,0.052,0.703c-0.14,0.388-0.501,0.742-0.922,0.901c-0.261,0.099-0.542,0.147-0.859,0.147
							c-0.04,0-0.081-0.001-0.122-0.002c0.116-0.07,0.222-0.158,0.313-0.261c0.249-0.285,0.364-0.663,0.314-1.039
							C281.759,167.568,281.808,167.388,281.936,167.241z"/>
						<path fill="none" d="M261.481,156.723c-0.008,0.004-0.015,0.007-0.023,0.011c-0.014-0.017-0.027-0.034-0.041-0.052
							C261.438,156.696,261.46,156.71,261.481,156.723z"/>
						<path fill="#064C1A" d="M282.594,170.14c1.339-0.507,2.302-2.071,1.527-3.43c-1.081-1.895-3.872-0.858-3.598,1.247
							c0.007,0.055-0.08,0.063-0.094,0.013c-0.534-1.884,1.37-3.467,3.165-2.62c2.054,0.969,2.136,3.657,0.574,5.107
							c-2.097,1.945-5.316,0.622-7.485-0.465c-0.801-0.402-1.992-1.171-3.276-1.842c-0.519-0.67-1.067-1.312-1.644-1.926
							c1.255,0.445,2.462,1.17,3.547,1.767C277.3,169.085,280.223,171.038,282.594,170.14z"/>
						<path fill="#064C1A" d="M351.121,169.836c-1.329,0-2.445,0.392-3.316,1.166c-0.242,0.215-0.477,0.435-0.712,0.655
							c-0.979,0.917-1.992,1.864-3.406,2.437c-0.263,0.107-0.533,0.197-0.808,0.271c-1.154,8.243-4.291,16.626-8.884,23.705
							c-4.922,7.586-12.029,13.617-21.125,17.925c-3.64,1.724-8.389,3.847-13.369,5.263c-0.006,0.243-0.017,0.472-0.032,0.694
							c0,0.003,0,0.006-0.001,0.009c1.636,3.083,3.133,6.237,4.392,8.936c1.973,4.233,4.049,8.805,5.868,13.567l0.388,0.791
							c2.624,5.379,4.88,10.97,6.927,16.211c4.328,11.082,7.992,22.5,10.891,33.94c0.726,2.865,1.45,6.009,2.214,9.612l0.159,0.75
							c0.574,2.698,1.166,5.479,1.468,8.29c2.345,0.241,4.299,0.555,6.084,0.975c3.018,0.711,8.381,2.607,10.393,7.314
							c0.132,0.309,0.234,0.611,0.321,0.909c-0.443-0.053-0.886-0.031-1.329,0.065c-0.053-0.157-0.097-0.312-0.166-0.473
							c-1.588-3.714-5.8-5.698-9.512-6.573c-2.275-0.536-4.617-0.839-6.972-1.049c0.002-0.029,0.004-0.058,0.001-0.089
							c-0.271-3.315-1.008-6.606-1.696-9.855c-0.678-3.199-1.399-6.392-2.202-9.563c-2.908-11.472-6.538-22.765-10.843-33.789
							c-2.121-5.431-4.328-10.873-6.885-16.115c-0.137-0.28-0.275-0.56-0.412-0.84c-1.756-4.602-3.796-9.123-5.854-13.538
							c-1.442-3.092-2.942-6.228-4.582-9.29c0.04-0.082,0.067-0.175,0.075-0.283c0.036-0.528,0.041-1.053,0.034-1.58
							c4.829-1.276,9.588-3.308,14.095-5.442c8.391-3.974,15.519-9.633,20.601-17.466c4.63-7.137,7.774-15.615,8.808-24.085
							c0.496-0.06,0.991-0.183,1.476-0.38c1.511-0.612,2.558-1.805,3.749-2.863c1.618-1.438,3.749-1.722,5.826-1.325
							c2.003,0.382,3.814,1.337,5.648,2.185c0.909,0.42,2.335,1.339,3.237,0.435c0.933-0.934,0.441-2.867-0.018-3.909
							c-0.652-1.479-1.87-2.604-3.268-3.378c-1.75-0.969-3.823-1.59-5.921-1.888c2.805-0.245,5.697,0.383,8.465,1.002
							c1.316,0.295,2.865,0.898,3.964-0.201c0.906-0.905,0.987-2.348,0.604-3.509c-0.525-1.592-1.71-2.605-3.126-3.228
							c0.527-0.115,0.97-0.41,1.232-1.071c0.401-1.012-0.006-2.082-0.762-2.801c-2.275-2.162-6.497-2.482-9.451-2.316
							c-3.509,0.197-7.012,1.296-10.142,2.868c-3.381,1.699-6.637,4.307-10.519,4.66c-0.341-0.147-0.673-0.321-0.984-0.547
							c-0.878-0.639-1.558-1.525-2.241-2.356c-2.339-2.849-5.48-4.976-9.235-5.32c-1.48-0.135-3.311,0.111-4.378,1.269
							c-0.889,0.964-0.585,2.104,0.35,2.888c1.322,1.108,3.022,1.755,4.446,2.725c1.682,1.146,3.147,2.642,4.251,4.353
							c1.471,2.28,2.237,4.874,2.514,7.537c-0.165,2.084-0.836,4.162-1.818,6.028c-3.492,6.636-10.118,11.356-16.804,14.398
							c-3.832,1.743-7.893,2.966-11.978,3.956c-2.121,0.514-4.257,0.959-6.4,1.37c-1.112,0.213-2.227,0.392-3.312,0.722
							c-0.863,0.263-1.695,0.605-2.57,0.818c-0.006-0.011-0.012-0.022-0.017-0.033c-0.714-1.303-1.676-2.91-3.051-3.588
							c-0.046-0.023-0.094-0.036-0.142-0.043c-0.443-2.892-1.11-5.748-2.006-8.531c-1.214-3.771-2.717-7.429-4.735-10.844
							c-1.083-1.832-2.272-3.632-3.654-5.255c0.804,0.229,1.643,0.61,2.446,1.03c3.337,4.305,5.542,9.655,7.159,14.678
							c0.84,2.61,1.494,5.322,1.948,8.073c1.115,0.701,1.952,1.815,2.664,3.005c0.182-0.06,0.366-0.124,0.554-0.188
							c0.334-0.115,0.678-0.234,1.034-0.342c0.953-0.29,1.91-0.468,2.835-0.641c0.202-0.038,0.405-0.075,0.607-0.114
							c2.428-0.466,4.442-0.897,6.34-1.357c4.711-1.142,8.444-2.374,11.75-3.877c5.353-2.435,12.509-6.811,16.203-13.83
							c0.933-1.772,1.507-3.643,1.666-5.419c-0.29-2.631-1.065-4.938-2.305-6.859c-1.005-1.558-2.353-2.938-3.897-3.99
							c-0.539-0.367-1.132-0.689-1.76-1.031c-0.942-0.512-1.915-1.041-2.786-1.771c-0.801-0.671-1.273-1.535-1.331-2.433
							c-0.054-0.833,0.245-1.628,0.862-2.298c1.019-1.105,2.648-1.714,4.586-1.714c0.281,0,0.566,0.013,0.847,0.039
							c3.791,0.347,7.285,2.346,10.105,5.781l0.218,0.266c0.584,0.716,1.136,1.393,1.788,1.867c0.134,0.097,0.28,0.186,0.449,0.272
							c2.41-0.311,4.598-1.583,6.909-2.928c0.917-0.533,1.865-1.085,2.822-1.566c3.524-1.77,7.204-2.809,10.643-3.002
							c0.466-0.026,0.939-0.04,1.404-0.04c2.807,0,6.647,0.469,8.998,2.704c1.223,1.163,1.633,2.771,1.069,4.196
							c-0.061,0.154-0.13,0.3-0.208,0.437c1.012,0.793,1.736,1.805,2.128,2.992c0.468,1.417,0.473,3.426-0.913,4.812
							c-0.669,0.668-1.521,1.007-2.532,1.007c-0.742,0-1.46-0.179-2.094-0.338c-0.003-0.001-0.005-0.001-0.008-0.002
							c0.714,0.709,1.275,1.51,1.659,2.38c0.751,1.703,1.081,3.997-0.247,5.326c-0.495,0.496-1.138,0.759-1.857,0.759
							c-0.929,0-1.779-0.424-2.462-0.764c-0.126-0.063-0.245-0.122-0.357-0.174c-0.278-0.128-0.555-0.259-0.833-0.391
							c-1.53-0.722-2.975-1.405-4.518-1.699C352.056,169.883,351.577,169.836,351.121,169.836z"/>
						<path fill="#064C1A" d="M180.351,258.4c-1.23,3.053-2.304,6.169-3.209,9.333c-0.82,2.865-2.538,6.807-0.53,9.487
							c0.118,0.157,0.242,0.311,0.37,0.463c-1.669,4.948-3.339,9.895-5.006,14.843c-0.731,2.171-1.427,4.356-2.183,6.519
							c-0.673,1.922-1.499,3.873-2.882,5.401c-1.269,1.402-2.806,2.509-3.85,4.113c-0.937,1.44-1.503,3.142-1.79,4.828
							c-0.167,0.984-0.276,2.013-0.318,3.057c-5.276-0.482-10.581-0.857-15.961-1.058c-2.343-0.088-5.433-0.398-7.4,1.75
							c-1.564,1.708-1.127,3.821-0.092,5.154c0.481,0.619,1.129,1.083,1.865,1.446c-0.622,0.076-1.237,0.185-1.84,0.343
							c-0.377-0.296-0.733-0.619-1.034-1.006c-1.386-1.785-1.874-4.579,0.159-6.799c1.811-1.977,4.277-2.231,6.223-2.231
							c0.574,0,1.121,0.024,1.649,0.047c0.176,0.008,0.348,0.015,0.517,0.022c4.627,0.173,9.458,0.483,14.728,0.945
							c0.059-0.637,0.141-1.267,0.246-1.884c0.347-2.039,1.013-3.826,1.979-5.31c0.747-1.149,1.685-2.037,2.591-2.897
							c0.491-0.465,0.954-0.904,1.382-1.376c1.273-1.405,2.04-3.299,2.623-4.966c0.471-1.347,0.928-2.731,1.37-4.07
							c0.268-0.812,0.536-1.624,0.809-2.435c1.13-3.353,2.261-6.706,3.392-10.058l1.393-4.128c-2.058-2.81-0.93-6.398-0.023-9.285
							c0.141-0.447,0.273-0.868,0.387-1.265c0.91-3.181,2.005-6.363,3.253-9.459c4.944-12.266,12.497-23.715,21.843-33.11
							c2.601-2.614,5.416-5.123,8.368-7.456l0.63-0.499c2.429-1.927,4.933-3.913,7.714-5.314c-0.02-0.117-0.036-0.234-0.051-0.351
							c-0.25-2.03,0.357-3.947,0.945-5.585l0.165-0.462c0.523-1.473,1.064-2.997,2.031-4.361c0.993-1.4,2.466-2.366,4.005-2.67
							c-0.343-0.374-0.709-0.734-1.092-1.075c-0.556-0.495-1.176-0.92-1.709-1.27c-0.065-0.043-0.128-0.081-0.187-0.116
							c-0.016-0.01-0.032-0.019-0.048-0.029c-0.965,0.47-2.057,0.723-3.16,0.723c-0.495,0-0.99-0.051-1.472-0.151
							c-1.475-0.307-2.75-1.062-3.682-2.149c-4.035,4.416-10.441,7.134-17.171,7.194l-0.242,0.001
							c-7.43,0-15.046-3.066-21.447-8.633c-6.048-5.26-9.873-11.887-10.771-18.661c-1.038-7.828,2.658-14.747,5.92-20.851
							c1.568-2.935,3.346-6.262,4.313-9.735c0.473-1.699,0.694-3.441,0.927-5.286c0.294-2.323,0.598-4.725,1.45-7.046
							c2.474-6.74,8.239-12.223,15.82-15.043c3.577-1.331,7.631-2.115,12.049-2.331c0.529-0.026,1.06-0.044,1.591-0.062
							c1.688-0.058,3.282-0.112,4.845-0.407c2.08-0.393,4.015-1.274,5.468-1.997c0.37-0.184,0.739-0.37,1.107-0.555
							c2.967-1.492,6.035-3.035,9.471-3.805c2.222-0.498,4.49-0.75,6.741-0.75c1.367,0,2.74,0.094,4.083,0.279
							c7.52,1.037,13.94,5.004,18.077,11.173c4.272,6.369,5.898,14.718,4.463,22.905c-0.293,1.674-0.777,3.437-1.51,5.49
							c1.371,1.066,1.943,2.765,1.397,4.343c-0.295,0.854-0.899,1.61-1.746,2.186c-0.307,0.209-0.635,0.356-0.955,0.475
							c0.031,0.021,0.063,0.043,0.094,0.064c0.461-0.288,0.958-0.48,1.457-0.559c0.176-0.028,0.359-0.042,0.546-0.042
							c1.721,0,3.798,1.213,4.63,2.703c0.199,0.356,0.237,0.779,0.116,1.163c1.603,0.299,2.978,1.616,3.468,3.405
							c0.269,0.979,0.306,2.015,0.275,2.921c-0.019,0.55,0.912,0.994,1.268,1.273c0.916,0.718,1.764,1.516,2.561,2.365
							c-0.656-0.233-1.325-0.394-1.998-0.41c-0.891-0.899-1.859-1.72-2.926-2.431c-0.075-0.05-0.149-0.08-0.222-0.101
							c0.078-1.078,0.095-2.244-0.189-3.278c-0.487-1.772-2.187-3.069-3.995-2.309c-0.474,0.199-0.916,0.438-1.359,0.67
							c-0.746-1.088-1.621-2.069-2.596-2.938c0.253-0.39,0.61-0.674,1.282-0.687c1.09-0.021,2.061,0.682,2.931,1.251
							c0.171,0.112,0.362-0.105,0.27-0.27c-0.642-1.149-2.539-2.232-3.861-2.023c-0.582,0.092-1.167,0.433-1.622,0.901
							c-0.84-0.645-1.739-1.215-2.68-1.71c0.52-0.915,1.936-0.907,2.788-1.487c0.556-0.379,1.036-0.904,1.259-1.548
							c0.446-1.29-0.271-2.573-1.414-3.208c-0.122-0.068-0.245-0.118-0.368-0.161c0.031-0.042,0.06-0.089,0.081-0.145
							c0.747-1.994,1.394-4.023,1.762-6.123c1.318-7.518,0.02-15.583-4.265-21.973c-3.973-5.924-10.146-9.648-17.191-10.619
							c-3.453-0.476-6.97-0.31-10.371,0.453c-3.691,0.827-6.932,2.585-10.288,4.257c-1.854,0.924-3.756,1.723-5.801,2.109
							c-2.174,0.41-4.408,0.382-6.609,0.49c-3.969,0.194-7.933,0.863-11.667,2.252c-6.716,2.498-12.555,7.443-15.066,14.286
							c-1.445,3.938-1.228,8.218-2.346,12.235c-0.982,3.528-2.7,6.781-4.417,9.995c-3.351,6.272-6.755,12.736-5.78,20.081
							c0.93,7.013,5.082,13.289,10.344,17.866c5.728,4.982,13.154,8.388,20.84,8.319c6.516-0.059,13.371-2.769,17.319-8.085
							c0.655,1.505,1.992,2.688,3.806,3.066c1.605,0.334,3.276-0.021,4.523-0.885c0.149,0.301,0.434,0.411,0.784,0.641
							c0.647,0.425,1.278,0.868,1.857,1.383c0.522,0.464,1.014,0.962,1.472,1.489c0.417,0.48,0.756,1.052,1.232,1.472
							c0.116,0.23,0.229,0.462,0.339,0.695c-1.982-1.088-4.425-0.106-5.764,1.781c-0.961,1.355-1.48,2.968-2.036,4.516
							c-0.572,1.594-1.09,3.286-0.879,4.998c0.052,0.422,0.14,0.829,0.256,1.221c-3.265,1.446-6.238,3.897-9.025,6.1
							c-2.894,2.287-5.653,4.74-8.255,7.355C192.636,235.04,185.269,246.198,180.351,258.4z"/>
						<path fill="#064C1A" d="M261.458,156.734c-0.014-0.017-0.027-0.034-0.041-0.052c0.021,0.014,0.042,0.027,0.064,0.041
							C261.473,156.727,261.465,156.73,261.458,156.734z"/>
					</g>
				</g>
				<path fill="#064C1A" d="M387.443,120.173c-9.371-4.021-19.879-4.855-29.868-2.764c8.762-3.323,18.815-3.075,27.585,0.158
					c2.938,1.07,5.788,2.508,8.384,4.248c2.582,1.744,5.084,3.769,6.9,6.324c0.602,0.853,1.128,1.757,1.533,2.708
					c-1.127-1.733-2.53-3.227-4.098-4.512c-1.949-1.615-4.113-2.982-6.339-4.181C390.216,121.423,388.839,120.748,387.443,120.173z
					 M283.865,128.654c-1.561,3.399-1.555,8.125,1.382,10.817c0.111,0.102,0.251-0.048,0.162-0.162
					c-1.601-2.021-1.592-4.514-0.839-6.858c0.633-1.969,1.446-3.859,2.654-5.549c5.124-7.164,14.422-9.413,22.777-9.148
					c9.026,0.287,18.38,2.111,26.065,7.083c0.067,0.043,0.149-0.061,0.086-0.111c-4.266-3.378-9.242-5.412-14.505-6.686
					c-9.382-2.27-20.478-3.317-29.208,1.647C288.81,121.75,285.621,124.829,283.865,128.654z M282.221,120.372
					c8.111-9.044,20.058-10.394,26.458-10.394c0.657,0,1.323,0.014,1.981,0.041c6.18,0.258,12.521,1.556,18.847,3.859
					c2.669,0.972,5.449,2.177,8.484,3.68c0.692-0.281,1.382-0.563,2.073-0.845c4.092-1.672,8.324-3.4,12.661-4.756
					c5.665-1.771,11.331-2.856,16.842-3.225c0.945-0.063,1.91-0.095,2.869-0.095c5.307,0,10.778,0.96,16.26,2.852
					c6.639,2.292,11.108,4.952,14.492,8.624c4.273,4.637,5.87,10.008,4.38,14.736c-1.278,4.055-4.879,7.128-9.882,8.43
					c-1.767,0.46-3.621,0.684-5.668,0.684c0,0,0,0,0,0c-3.241,0-6.47-0.571-9.499-1.156c-0.755-0.146-1.516-0.305-2.263-0.472
					c-1.15-0.185-2.33-0.411-3.506-0.674c-3.419-0.764-6.499-1.477-9.571-2.464c-2.807-0.902-5.954-2.024-9.354-3.334
					c-2.813-1.084-6.093-1.951-9.485-2.505c-0.695-0.114-1.362-0.23-2.012-0.344c-2.483-0.434-4.626-0.809-7.215-0.826
					c-0.128-0.001-0.257-0.001-0.386-0.001c-6.296,0-12.561,0.989-18.621,2.941c-5.335,1.718-10.568,4.049-15.628,6.304
					c-0.829,0.369-1.658,0.739-2.488,1.106c-0.361,0.16-0.726,0.323-1.093,0.487c-3.822,1.708-8.154,3.644-12.595,3.644
					c-0.964,0-1.914-0.092-2.824-0.273c-5.524-1.102-9.107-6.078-8.916-12.382C276.706,129.123,278.717,124.278,282.221,120.372z
					 M285.307,142.73c2.695,0.85,5.587,0.29,8.211-0.547c5.779-1.842,11.228-4.811,16.813-7.156
					c5.996-2.518,12.177-4.741,18.642-5.66c6.494-0.923,12.877-0.608,19.299,0.674c3.145,0.628,6.249,1.527,9.28,2.571
					c1.033,0.355,2.03,0.785,3.013,1.242c-10.243-5.242-19.753-11.966-30.501-16.167c-10.708-4.185-23.5-6.334-34.534-2.12
					c-4.425,1.69-8.638,4.412-11.6,8.15c-2.911,3.674-4.715,8.876-3.588,13.555C280.971,139.877,282.717,141.913,285.307,142.73z
					 M396.034,140.165c0.127-0.029,0.227,0.021,0.287,0.101c0.172-0.039,0.344-0.079,0.515-0.124
					c4.234-1.092,7.913-3.986,8.012-8.67c0.113-5.34-4.063-9.885-8.225-12.69c-4.941-3.33-11.147-5.24-16.973-6.247
					c-11.769-2.033-23.133,1.521-34.115,5.371c-2.45,0.859-3.245,1.505-5.045,2.24c2.045,1.081,4.066,2.208,6.075,3.346
					c5.777,3.272,11.463,6.742,17.436,9.651c5.637,2.745,11.578,4.824,17.707,6.152c3.725,0.807,7.652,1.615,11.5,1.397
					C394.156,140.554,395.099,140.382,396.034,140.165z"/>
				<path fill="#064C1A" d="M268.464,168.865c-0.12,0.163-0.234,0.33-0.365,0.485c-0.814,0.966-1.935,1.583-3.091,2.038
					c-1.123,0.442-2.362,0.62-3.599,0.605c-0.059,0.031-0.125,0.058-0.184,0.09c0.345,1.436,2.53,3.083,3.858,3.231
					c2.312,0.258,3.975-1.666,4.121-3.874c0.057-0.869-0.074-1.874-0.4-2.726C268.692,168.767,268.576,168.813,268.464,168.865z"/>
			</g>
		</g>
		<path fill="#064C1A" d="M247.237,163.09c-0.099-0.033-0.197-0.049-0.295-0.074c-0.07-0.584-0.269-1.203-0.613-1.798
			c-0.973-1.686-2.687-2.518-3.828-1.859c-0.7,0.404-1.017,1.277-0.937,2.279l1.699-0.073l-1.4,1.337
			c0.092,0.235,0.2,0.471,0.333,0.702c0.127,0.22,0.267,0.423,0.417,0.612c-1.093,0.914-2.34,2.466-1.719,3.958
			c0.083,0.199,0.407,0.292,0.471,0.062c0.764-2.74,2.276-3.681,3.162-4.191c0.832-0.479,1.738-0.677,2.687-0.74
			c0.105-0.007,0.216,0.008,0.324,0.009C247.469,163.219,247.377,163.136,247.237,163.09z"/>
		
			<ellipse transform="matrix(0.9059 -0.4236 0.4236 0.9059 -42.0491 124.4085)" fill="#064C1A" cx="258.848" cy="156.799" rx="0.976" ry="1.193"/>
	</g>
</g>
<g id="TEXTS">
	<g>
		
			<ellipse transform="matrix(0.5489 0.8359 -0.8359 0.5489 344.2401 -122.7101)" fill="none" cx="285.817" cy="257.602" rx="151.888" ry="169.156"/>
		<text transform="matrix(0.8061 0.5918 -0.5918 0.8061 155.6282 369.438)"><tspan x="0" y="0" fill="#AD4040" font-family="'SegoePrint'" font-size="72">G</tspan><tspan x="68.725" y="-4.436" fill="#AD4040" font-family="'SegoePrint'" font-size="72" rotate="-23.851">a</tspan><tspan x="115.034" y="-26.899" fill="#AD4040" font-family="'SegoePrint'" font-size="72" rotate="-40.676">e</tspan><tspan x="148.353" y="-57.086" fill="#AD4040" font-family="'SegoePrint'" font-size="72" rotate="-54.512">t</tspan><tspan x="172.128" y="-91.282" fill="#AD4040" font-family="'SegoePrint'" font-size="72" rotate="-68.54">a</tspan></text>
	</g>
	<rect x="112.661" y="324.349" fill="none" width="7.927" height="45.982"/>
</g>
</svg>
