<?xml version="1.0" encoding="utf-8"?>
<!-- Uploaded to: SVG Repo, www.svgrepo.com, Generator: SVG Repo Mixer Tools -->
<svg fill="#000000" height="800px" width="800px" version="1.1" id="_x31_" xmlns="http://www.w3.org/2000/svg" xmlns:xlink="http://www.w3.org/1999/xlink" 
	 viewBox="0 0 128 128" xml:space="preserve">
<g>
	<path d="M98.7,61.6c-0.8-1.2-1.6-2.4-2.5-3.5c-4.9-6-11.7-10.7-19.1-13c-0.4-0.1-0.7-0.5-0.7-1V25c0,0,0-0.1,0-0.1h0.8h2.7v-1.4
		V11.8v-1.5h-3.1H53.4h-3.2v1.5v11.5v1.5h2.7h0.8c0,0,0,0.1,0,0.1v3.7c-2.2-1.8-5.1-2.8-8.1-2.8c-7.3,0-13.2,5.9-13.2,13.2
		c0,5.6,3.5,10.4,8.5,12.3c-2.6,2-4.9,4.2-7,6.7c-0.9,1.1-1.8,2.3-2.5,3.5C27.3,68,25.1,75.5,25,83.1v0.1c0,8.3,2.6,16.2,7.2,22.9
		c2.7,3.9,6,7.3,10,10v6.5h45.7v-6.5h0c4-2.7,7.3-6.2,10-10c4.6-6.6,7.2-14.6,7.2-22.9v-0.1C105,75.5,102.8,68,98.7,61.6z
		 M37.9,39.1c0-4.3,3.5-7.7,7.7-7.7s7.7,3.5,7.7,7.7s-3.5,7.7-7.7,7.7S37.9,43.3,37.9,39.1z M43.5,83.1c0-11.9,9.6-21.5,21.5-21.5
		s21.5,9.6,21.5,21.5c0,11.9-9.6,21.5-21.5,21.5C53.2,104.6,43.5,95,43.5,83.1z M77.8,61.6c-3.7-2.2-8.1-3.5-12.8-3.5
		s-9.1,1.3-12.8,3.5H39.3C44.1,56,50.5,52,57.6,50.4c1.5-0.3,2.5-1.6,2.5-3.1V25.1c0-0.1,0-0.1,0-0.2h1h7.8h1c0,0.1,0,0.1,0,0.2
		v22.3c0,1.5,1,2.8,2.5,3.1C79.5,52,86,56,90.7,61.6H77.8z"/>
	<path d="M84.4,82.9c0-10.7-8.7-19.4-19.4-19.4s-19.4,8.7-19.4,19.4s8.7,19.4,19.4,19.4S84.4,93.6,84.4,82.9z M72.7,93.7L72.7,93.7
		l-4.8-0.5c-0.3,0-0.6,0.1-0.8,0.3c-0.2,0.2-0.3,0.5-0.3,0.8v2.7c0,1-0.8,1.7-1.7,1.7c-0.9,0-1.7-0.8-1.7-1.7v-2.7
		c0-0.3-0.1-0.6-0.3-0.8c-0.2-0.2-0.4-0.3-0.7-0.3c0,0-0.1,0-0.1,0l-4.7,0.5c0,0-0.1,0-0.1,0c-0.3,0-0.6-0.1-0.8-0.4
		c-0.2-0.3-0.3-0.7-0.2-1l0.3-1c0.1-0.4,0-0.8-0.3-1.1l-6.4-5.1c-0.3-0.3-0.5-0.6-0.4-1c0.1-0.3,0.3-0.6,0.6-0.8
		c0.4-0.2,0.7-0.7,0.6-1.2l-0.8-3.5c-0.1-0.3,0-0.7,0.3-1c0.2-0.2,0.6-0.4,1-0.3l2.5,0.5c0.5,0.1,1.1-0.2,1.2-0.7l0-0.1
		c0.1-0.4,0.4-0.6,0.7-0.7c0.4-0.1,0.7,0,1,0.2l1,0.9c0.3,0.3,0.8,0.4,1.2,0.1c0.4-0.2,0.6-0.6,0.5-1.1l-0.6-4
		c-0.1-0.4,0.1-0.8,0.4-1c0.3-0.2,0.7-0.3,1.1-0.1l0.8,0.4c0.5,0.2,1.1,0,1.3-0.5l1.8-3.6c0.2-0.4,0.5-0.6,0.9-0.6
		c0.4,0,0.8,0.2,0.9,0.6l1.8,3.5c0.2,0.5,0.8,0.7,1.3,0.5l0.8-0.4c0.3-0.1,0.8-0.1,1.1,0.1c0.3,0.2,0.5,0.6,0.4,1l-0.6,4
		c-0.1,0.4,0.1,0.9,0.5,1.1c0.4,0.2,0.9,0.1,1.2-0.1l1-0.9c0.2-0.2,0.4-0.3,0.7-0.3c0.1,0,0.2,0,0.3,0c0.4,0.1,0.6,0.4,0.7,0.7
		l0,0.1c0.1,0.5,0.7,0.8,1.2,0.7l2.6-0.5c0.3-0.1,0.7,0.1,1,0.3c0.3,0.3,0.4,0.6,0.3,1l-0.8,3.5c-0.1,0.5,0.1,1,0.6,1.2
		c0.3,0.1,0.5,0.4,0.6,0.8c0.1,0.4-0.1,0.8-0.4,1l-6.4,5.1c-0.3,0.3-0.5,0.7-0.3,1.1l0.3,0.9c0,0,0,0.1,0,0.1c0,0.1,0.1,0.3,0.1,0.4
		C73.8,93.3,73.3,93.7,72.7,93.7z"/>
</g>
</svg>